<svg width="604" height="729" viewBox="0 0 604 729" fill="none" xmlns="http://www.w3.org/2000/svg">
<g opacity="0.3">
<path opacity="0.3" d="M603.934 692.467V681.623L601.545 679.953C600.864 685.06 596.026 688.449 591.965 689.151L564.432 709.217L552.423 714.614L514.048 689.949L514.941 689.32C511.658 687.408 509.889 683.051 508.121 679.057L505.537 680.969L504.002 681.526V692.636C504.104 693.899 504.469 695.107 505.063 696.139C505.656 697.171 506.456 697.991 507.383 698.518L545.875 726.16C548.407 727.748 551.202 728.575 554.036 728.575C556.871 728.575 559.666 727.748 562.197 726.16L600.631 698.518C601.542 697.998 602.329 697.195 602.918 696.186C603.507 695.177 603.877 693.996 603.993 692.757C604.002 692.661 604.002 692.563 603.993 692.467H603.934Z" fill="url(#paint0_linear_34_296)"/>
<path opacity="0.3" d="M591.964 689.151L564.431 709.217L553.977 713.913V728.581C556.819 728.654 559.628 727.821 562.138 726.16L600.572 698.518C601.482 697.999 602.27 697.196 602.859 696.186C603.448 695.177 603.818 693.996 603.934 692.757C603.943 692.661 603.943 692.563 603.934 692.467V692.467V681.623L601.738 680.098H601.505C600.766 685.133 595.986 688.352 591.964 689.151Z" fill="#0F054C"/>
<path opacity="0.3" d="M545.876 715.123L507.442 687.481C502.934 684.261 502.934 678.985 507.442 675.741L545.876 648.099C548.408 646.511 551.203 645.684 554.037 645.684C556.871 645.684 559.666 646.511 562.198 648.099L600.632 675.741C605.121 678.985 605.121 684.261 600.632 687.481L562.198 715.123C559.669 716.722 556.873 717.555 554.037 717.555C551.201 717.555 548.405 716.722 545.876 715.123Z" fill="url(#paint1_linear_34_296)"/>
<g opacity="0.3">
<path opacity="0.3" d="M545.876 715.123L507.442 687.481C502.934 684.261 502.934 678.985 507.442 675.741L545.876 648.099C548.408 646.511 551.203 645.684 554.037 645.684C556.871 645.684 559.666 646.511 562.198 648.099L600.632 675.741C605.121 678.985 605.121 684.261 600.632 687.481L562.198 715.123C559.669 716.722 556.873 717.555 554.037 717.555C551.201 717.555 548.405 716.722 545.876 715.123Z" fill="#0F054C"/>
</g>
</g>
<path d="M553.977 680.195C551.454 680.251 548.961 679.51 546.73 678.04L508.296 650.398C507.388 650.001 506.602 649.263 506.045 648.285C505.489 647.307 505.19 646.138 505.19 644.94C505.19 643.741 505.489 642.573 506.045 641.595C506.602 640.617 507.388 639.879 508.296 639.481L546.73 611.839C548.975 610.43 551.454 609.697 553.968 609.697C556.482 609.697 558.961 610.43 561.206 611.839L599.659 639.481C600.567 639.879 601.353 640.617 601.91 641.595C602.466 642.573 602.765 643.741 602.765 644.94C602.765 646.138 602.466 647.307 601.91 648.285C601.353 649.263 600.567 650.001 599.659 650.398L561.225 678.04C558.994 679.51 556.501 680.251 553.977 680.195ZM553.977 610.532C551.571 610.472 549.191 611.171 547.06 612.565L508.626 640.208C507.828 640.538 507.134 641.173 506.642 642.022C506.15 642.871 505.885 643.892 505.885 644.94C505.885 645.987 506.15 647.008 506.642 647.857C507.134 648.707 507.828 649.342 508.626 649.672L547.06 677.314C549.202 678.663 551.568 679.365 553.968 679.365C556.368 679.365 558.734 678.663 560.875 677.314L599.31 649.623C600.108 649.293 600.802 648.658 601.294 647.809C601.786 646.96 602.051 645.939 602.051 644.891C602.051 643.844 601.786 642.823 601.294 641.974C600.802 641.124 600.108 640.489 599.31 640.159L560.875 612.517C558.747 611.143 556.374 610.46 553.977 610.532V610.532Z" fill="#42E8E0"/>
<path opacity="0.4" d="M603.934 634.326V617.939L601.545 616.269C600.864 621.4 596.026 624.765 591.965 625.467L564.432 645.533L552.423 650.931L514.048 626.266L514.941 625.636C511.658 623.724 509.889 619.367 508.121 615.373L505.537 617.285L504.002 617.842V634.495C504.104 635.758 504.469 636.966 505.063 637.998C505.656 639.03 506.456 639.85 507.383 640.377L545.875 668.019C548.404 669.618 551.2 670.452 554.036 670.452C556.872 670.452 559.668 669.618 562.197 668.019L600.631 640.377C601.542 639.857 602.329 639.054 602.918 638.045C603.507 637.036 603.877 635.855 603.993 634.616C604.002 634.52 604.002 634.422 603.993 634.326H603.934Z" fill="#42E8E0"/>
<path d="M603.934 619.754V608.91L601.545 607.24C600.864 612.372 596.026 615.736 591.965 616.438L564.432 636.504L552.423 641.902L514.048 617.237L514.941 616.608C511.658 614.695 509.889 610.339 508.121 606.345L505.537 608.281L504.002 608.814V619.924C504.104 621.187 504.469 622.395 505.063 623.427C505.656 624.459 506.456 625.279 507.383 625.806L545.875 653.448C548.404 655.047 551.2 655.88 554.036 655.88C556.872 655.88 559.668 655.047 562.197 653.448L600.631 625.806C601.542 625.286 602.329 624.483 602.918 623.474C603.507 622.465 603.877 621.284 603.993 620.045C604.002 619.948 604.002 619.851 603.993 619.754H603.934Z" fill="url(#paint2_linear_34_296)"/>
<path opacity="0.3" d="M591.964 616.438L564.431 636.504L553.977 641.2V655.868C556.819 655.941 559.628 655.108 562.138 653.447L600.572 625.805C601.483 625.285 602.27 624.482 602.859 623.473C603.448 622.464 603.818 621.283 603.934 620.044C603.943 619.948 603.943 619.85 603.934 619.754V619.754V608.91L601.738 607.385H601.505C600.767 612.42 595.986 615.736 591.964 616.438Z" fill="#0F054C"/>
<path d="M545.876 642.361L507.442 614.719C502.934 611.475 502.934 606.199 507.442 602.979L545.876 575.41C548.405 573.811 551.201 572.978 554.037 572.978C556.873 572.978 559.669 573.811 562.198 575.41L600.632 603.052C605.12 606.271 605.12 611.548 600.632 614.791L562.139 642.361C559.615 643.937 556.831 644.758 554.007 644.758C551.184 644.758 548.4 643.937 545.876 642.361V642.361Z" fill="url(#paint3_linear_34_296)"/>
<path d="M600.572 614.793L562.138 642.362C559.606 643.95 556.811 644.777 553.977 644.777C551.143 644.777 548.348 643.95 545.816 642.362L507.382 614.72C506.543 614.227 505.806 613.502 505.227 612.6C504.647 611.698 504.241 610.643 504.04 609.516C503.768 611.936 504.895 614.357 507.382 616.051L545.874 643.766C548.403 645.365 551.199 646.198 554.035 646.198C556.871 646.198 559.667 645.365 562.196 643.766L600.63 616.124C601.656 615.593 602.526 614.68 603.121 613.51C603.715 612.341 604.006 610.971 603.953 609.589C603.746 610.72 603.333 611.777 602.747 612.679C602.161 613.581 601.417 614.304 600.572 614.793V614.793Z" fill="white"/>
<path d="M534.677 607.617L447.253 542.477L419.458 562.442H419.135L365 522.712L365.323 521.704L419.458 561.232L447.253 541.266L447.899 541.67L535 606.609L534.677 607.617Z" fill="url(#paint4_linear_34_296)"/>
<g opacity="0.3">
<path opacity="0.3" d="M99.9995 691.293V680.449L97.5889 678.779C96.9085 683.911 92.068 687.275 88.0244 687.977L60.4585 708.043L48.4445 713.441L10.0505 688.776L10.9447 688.146C7.65938 686.234 5.89032 681.877 4.12128 677.884L1.53578 679.82L0 680.352V691.463C0.10176 692.726 0.467602 693.933 1.06111 694.965C1.65462 695.997 2.45504 696.818 3.38255 697.344L41.8349 724.987C44.365 726.586 47.1624 727.419 49.9998 727.419C52.8371 727.419 55.6344 726.586 58.1645 724.987L96.6169 697.344C97.5313 696.828 98.3232 696.026 98.9158 695.017C99.5084 694.008 99.8817 692.825 99.9995 691.584C99.9995 691.584 99.9995 691.39 99.9995 691.293V691.293Z" fill="url(#paint5_linear_34_296)"/>
<path opacity="0.3" d="M88.0237 688.025L60.4578 708.091L49.999 712.787V727.455C52.8418 727.528 55.6524 726.695 58.1638 725.034L96.6162 697.392C97.5306 696.876 98.3225 696.074 98.9151 695.065C99.5077 694.056 99.8809 692.873 99.9988 691.631C99.9988 691.631 99.9988 691.438 99.9988 691.341V680.497L97.7826 678.972H97.5493C96.8106 683.958 92.0284 687.274 88.0237 688.025Z" fill="#0F054C"/>
<path opacity="0.3" d="M41.8349 713.973L3.38257 686.331C-1.12752 683.087 -1.12752 677.811 3.38257 674.591L41.8349 646.877C44.3651 645.278 47.1624 644.444 49.9998 644.444C52.8371 644.444 55.6344 645.278 58.1646 646.877L96.6169 674.519C101.108 677.738 101.108 683.015 96.6169 686.258L58.1646 713.973C55.6317 715.561 52.8355 716.388 49.9998 716.388C47.1641 716.388 44.3678 715.561 41.8349 713.973V713.973Z" fill="url(#paint6_linear_34_296)"/>
<g opacity="0.3">
<path opacity="0.3" d="M41.8354 713.973L3.38305 686.331C-1.12703 683.087 -1.12703 677.811 3.38305 674.591L41.8354 646.877C44.3656 645.278 47.1629 644.444 50.0003 644.444C52.8376 644.444 55.6349 645.278 58.165 646.877L96.6174 674.519C101.108 677.738 101.108 683.015 96.6174 686.258L58.165 713.973C55.6322 715.561 52.836 716.388 50.0003 716.388C47.1646 716.388 44.3683 715.561 41.8354 713.973V713.973Z" fill="#0F054C"/>
</g>
</g>
<path d="M49.9996 673.745C47.4742 673.813 44.977 673.072 42.7485 671.59L4.29613 643.948C3.39469 643.546 2.61507 642.807 2.06386 641.832C1.51265 640.857 1.2168 639.694 1.2168 638.502C1.2168 637.31 1.51265 636.147 2.06386 635.172C2.61507 634.197 3.39469 633.458 4.29613 633.056L42.7485 605.414C44.9954 603.993 47.4798 603.253 49.9996 603.253C52.5195 603.253 55.0038 603.993 57.2507 605.414L95.7031 633.056C96.6045 633.458 97.3842 634.197 97.9354 635.172C98.4866 636.147 98.7825 637.31 98.7825 638.502C98.7825 639.694 98.4866 640.857 97.9354 641.832C97.3842 642.807 96.6045 643.546 95.7031 643.948L57.2507 671.59C55.0222 673.072 52.5251 673.813 49.9996 673.745ZM43.079 670.864C45.2217 672.213 47.589 672.916 49.9899 672.916C52.3908 672.916 54.7581 672.213 56.9008 670.864L95.3532 643.222C96.2122 642.978 96.9792 642.379 97.5286 641.521C98.078 640.664 98.3773 639.599 98.3773 638.502C98.3773 637.405 98.078 636.341 97.5286 635.483C96.9792 634.626 96.2122 634.026 95.3532 633.782L56.9008 606.14C54.7609 604.78 52.3925 604.071 49.9899 604.071C47.5873 604.071 45.219 604.78 43.079 606.14L4.62663 633.782C3.76764 634.026 3.00061 634.626 2.4512 635.483C1.90178 636.341 1.60254 637.405 1.60254 638.502C1.60254 639.599 1.90178 640.664 2.4512 641.521C3.00061 642.379 3.76764 642.978 4.62663 643.222L43.079 670.864Z" fill="#42E8E0"/>
<path opacity="0.4" d="M99.9995 627.9V611.489L97.5889 609.819C96.9085 614.95 92.068 618.315 88.0244 619.017L60.4585 639.083L48.4445 644.456L10.0505 619.791L10.9447 619.162C7.65938 617.25 5.89032 612.893 4.12128 608.899L1.53578 610.836L0 611.368V628.045C0.0933683 629.309 0.456185 630.518 1.05091 631.547C1.64563 632.577 2.45061 633.391 3.38255 633.903L41.8349 661.545C44.365 663.144 47.1624 663.977 49.9998 663.977C52.8371 663.977 55.6344 663.144 58.1645 661.545L96.6169 633.903C97.5313 633.387 98.3232 632.585 98.9158 631.576C99.5084 630.566 99.8817 629.384 99.9995 628.142C99.9995 628.142 99.9995 627.949 99.9995 627.852V627.9Z" fill="#42E8E0"/>
<path d="M99.9995 613.305V602.461L97.5889 600.791C96.9085 605.922 92.068 609.287 88.0244 609.989L60.4585 630.054L48.4445 635.452L10.0505 610.787L10.9447 610.158C7.65938 608.246 5.89032 603.889 4.12128 599.919L1.53578 601.831L0 602.364V613.498C0.105005 614.757 0.472354 615.96 1.06568 616.987C1.659 618.015 2.45768 618.831 3.38255 619.356L41.8349 646.998C44.365 648.597 47.1624 649.43 49.9998 649.43C52.8371 649.43 55.6344 648.597 58.1645 646.998L96.6169 619.356C97.5313 618.839 98.3232 618.038 98.9158 617.029C99.5084 616.019 99.8817 614.837 99.9995 613.595C99.9995 613.595 99.9995 613.401 99.9995 613.305V613.305Z" fill="url(#paint7_linear_34_296)"/>
<path d="M41.8349 635.985L3.38257 608.342C-1.12752 605.099 -1.12752 599.822 3.38257 596.603L41.8349 568.961C44.3651 567.362 47.1624 566.528 49.9998 566.528C52.8371 566.528 55.6344 567.362 58.1646 568.961L96.6169 596.603C101.108 599.846 101.108 605.099 96.6169 608.342L58.1646 635.985C55.6344 637.583 52.8371 638.417 49.9998 638.417C47.1624 638.417 44.3651 637.583 41.8349 635.985Z" fill="url(#paint8_linear_34_296)"/>
<path d="M50 630.95C47.719 631.013 45.4632 630.347 43.4487 629.013L13.4138 607.422C12.5926 607.059 11.8817 606.388 11.379 605.502C10.8763 604.616 10.6064 603.557 10.6064 602.472C10.6064 601.387 10.8763 600.329 11.379 599.442C11.8817 598.556 12.5926 597.885 13.4138 597.522L43.4487 575.931C45.4776 574.643 47.7226 573.972 50 573.972C52.2773 573.972 54.5223 574.643 56.5512 575.931L86.5861 597.522C87.4074 597.885 88.1182 598.556 88.6209 599.442C89.1236 600.329 89.3935 601.387 89.3935 602.472C89.3935 603.557 89.1236 604.616 88.6209 605.502C88.1182 606.388 87.4074 607.059 86.5861 607.422L56.5512 629.013C54.5368 630.347 52.2809 631.013 50 630.95V630.95ZM43.7791 628.287C45.7034 629.505 47.8316 630.14 49.9902 630.14C52.1489 630.14 54.2771 629.505 56.2013 628.287L86.2556 606.696C86.9767 606.412 87.6065 605.85 88.0535 605.09C88.5005 604.331 88.7415 603.414 88.7415 602.472C88.7415 601.531 88.5005 600.613 88.0535 599.854C87.6065 599.094 86.9767 598.532 86.2556 598.248L56.2013 576.682C54.2771 575.463 52.1489 574.829 49.9902 574.829C47.8316 574.829 45.7034 575.463 43.7791 576.682L13.7443 598.273C13.0693 598.638 12.4847 599.221 12.0507 599.961C11.6168 600.701 11.3491 601.572 11.2754 602.484C11.3517 603.398 11.6201 604.271 12.0535 605.015C12.487 605.758 13.0702 606.346 13.7443 606.72L43.7791 628.287Z" fill="#5351AF"/>
<path d="M96.6166 608.343L58.1642 635.985C55.6341 637.584 52.8368 638.417 49.9994 638.417C47.1621 638.417 44.3647 637.584 41.8346 635.985L3.38223 608.343C2.54315 607.85 1.80566 607.125 1.22613 606.223C0.646607 605.321 0.240385 604.266 0.0385404 603.139C-0.00591017 604.526 0.290329 605.897 0.887737 607.069C1.48514 608.241 2.35532 609.158 3.38223 609.698L41.8346 637.341C44.3674 638.928 47.1637 639.755 49.9994 639.755C52.8351 639.755 55.6314 638.928 58.1642 637.341L96.6166 609.698C97.6432 609.16 98.5124 608.242 99.1069 607.069C99.7013 605.896 99.9924 604.524 99.9409 603.139C99.7425 604.264 99.3397 605.319 98.7635 606.221C98.1873 607.123 97.4529 607.849 96.6166 608.343V608.343Z" fill="white"/>
<path d="M54.7094 626.843L141.839 564.421L169.723 583.153L170.046 583.15L224.002 545.073L223.674 544.119L169.718 582.005L141.834 563.274L141.189 563.661L54.3817 625.889L54.7094 626.843Z" fill="url(#paint9_linear_34_296)"/>
<g opacity="0.3">
<path opacity="0.3" d="M602.903 252.629V241.785L600.495 240.115C599.815 245.222 594.979 248.611 590.94 249.313L563.4 269.355L551.398 274.777L513.041 250.112L513.934 249.458C510.652 247.57 508.885 243.189 507.117 239.219L504.534 241.131L503 241.664V252.798C503.091 254.062 503.453 255.272 504.047 256.303C504.642 257.333 505.447 258.146 506.379 258.656L544.795 286.298C547.322 287.897 550.117 288.73 552.952 288.73C555.786 288.73 558.581 287.897 561.109 286.298L599.524 258.656C600.438 258.139 601.229 257.338 601.821 256.329C602.413 255.319 602.786 254.137 602.903 252.895V252.629V252.629Z" fill="url(#paint10_linear_34_296)"/>
<path opacity="0.3" d="M590.939 249.313L563.4 269.355L552.951 274.074V288.743C555.791 288.816 558.599 287.982 561.108 286.322L599.524 258.68C600.437 258.164 601.228 257.362 601.82 256.353C602.412 255.343 602.785 254.161 602.903 252.919V252.653V241.809L600.708 240.284H600.475C599.698 245.295 594.94 248.611 590.939 249.313Z" fill="#0F054C"/>
<path opacity="0.3" d="M544.794 275.285L506.476 247.642C501.97 244.399 501.97 239.146 506.476 235.903L544.794 208.164C547.322 206.565 550.117 205.732 552.951 205.732C555.786 205.732 558.58 206.565 561.108 208.164L599.524 235.806C604.029 239.05 604.029 244.302 599.524 247.546L561.108 275.188C558.587 276.802 555.795 277.652 552.96 277.668C550.126 277.685 547.328 276.869 544.794 275.285V275.285Z" fill="url(#paint11_linear_34_296)"/>
<g opacity="0.3">
<path opacity="0.3" d="M544.794 275.285L506.476 247.642C501.97 244.399 501.97 239.146 506.476 235.903L544.794 208.164C547.322 206.565 550.117 205.732 552.951 205.732C555.786 205.732 558.58 206.565 561.108 208.164L599.524 235.806C604.029 239.05 604.029 244.302 599.524 247.546L561.108 275.188C558.587 276.802 555.795 277.652 552.96 277.668C550.126 277.685 547.328 276.869 544.794 275.285V275.285Z" fill="#0F054C"/>
</g>
</g>
<path d="M552.953 242.173C550.431 242.229 547.938 241.488 545.709 240.018L507.293 212.376C506.386 211.979 505.6 211.241 505.044 210.263C504.488 209.285 504.189 208.116 504.189 206.918C504.189 205.719 504.488 204.551 505.044 203.573C505.6 202.595 506.386 201.857 507.293 201.46L545.709 173.817C547.956 172.408 550.437 171.674 552.953 171.674C555.469 171.674 557.949 172.408 560.197 173.817L598.612 201.46C599.52 201.857 600.305 202.595 600.861 203.573C601.417 204.551 601.716 205.719 601.716 206.918C601.716 208.116 601.417 209.285 600.861 210.263C600.305 211.241 599.52 211.979 598.612 212.376L560.197 240.018C557.967 241.488 555.475 242.229 552.953 242.173ZM552.953 172.486C550.552 172.434 548.18 173.142 546.058 174.543L507.623 202.186C506.826 202.516 506.132 203.151 505.64 204C505.148 204.849 504.884 205.87 504.884 206.918C504.884 207.965 505.148 208.986 505.64 209.836C506.132 210.685 506.826 211.32 507.623 211.65L546.058 239.292C548.199 240.641 550.564 241.343 552.962 241.343C555.361 241.343 557.726 240.641 559.867 239.292L598.282 211.65C599.08 211.32 599.774 210.685 600.265 209.836C600.757 208.986 601.022 207.965 601.022 206.918C601.022 205.87 600.757 204.849 600.265 204C599.774 203.151 599.08 202.516 598.282 202.186L559.867 174.543C557.738 173.142 555.36 172.434 552.953 172.486V172.486Z" fill="#42E8E0"/>
<path opacity="0.4" d="M602.903 196.304V179.917L600.495 178.247C599.815 183.354 594.979 186.743 590.94 187.444L563.4 207.511L551.398 213.005L513.041 188.34L513.934 187.711C510.652 185.799 508.885 181.442 507.117 177.448L504.534 179.36L503 179.917V196.57C503.124 197.828 503.51 199.025 504.12 200.04C504.73 201.055 505.542 201.853 506.476 202.355L544.795 229.949C547.322 231.548 550.117 232.381 552.952 232.381C555.786 232.381 558.581 231.548 561.109 229.949L599.524 202.306C600.438 201.79 601.229 200.988 601.821 199.979C602.413 198.97 602.786 197.787 602.903 196.546V196.255V196.304Z" fill="#42E8E0"/>
<path d="M602.903 181.732V170.888L600.495 169.218C599.815 174.325 594.979 177.714 590.94 178.416L563.4 198.482L551.398 203.88L513.041 179.118L513.934 178.489C510.652 176.576 508.885 172.219 507.117 168.226L504.534 170.138L503 170.694V181.805C503.102 183.068 503.467 184.275 504.06 185.307C504.653 186.339 505.453 187.16 506.379 187.687L544.795 215.426C547.325 217.013 550.119 217.84 552.952 217.84C555.785 217.84 558.578 217.013 561.109 215.426L599.524 187.783C600.438 187.267 601.229 186.465 601.821 185.456C602.413 184.447 602.786 183.264 602.903 182.022V181.732Z" fill="url(#paint12_linear_34_296)"/>
<path opacity="0.3" d="M590.939 178.416L563.4 198.483L552.951 203.178V217.847C555.791 217.919 558.599 217.086 561.108 215.426L599.524 187.784C600.437 187.267 601.228 186.466 601.82 185.457C602.412 184.447 602.785 183.265 602.903 182.023V181.733V170.889L600.708 169.364H600.475C599.698 174.398 594.94 177.715 590.939 178.416Z" fill="#0F054C"/>
<path d="M513.934 178.585L550.349 152.492C551.16 151.985 552.054 151.721 552.961 151.721C553.868 151.721 554.763 151.985 555.574 152.492L591.328 178.222L590.94 178.512C594.979 177.81 599.815 174.422 600.495 169.314L560.351 141.478L548.698 137.63L539.182 144.601L507.137 168.419C508.885 172.316 510.652 176.697 513.934 178.585Z" fill="url(#paint13_linear_34_296)"/>
<path opacity="0.3" d="M552.951 138.961L548.679 137.533L539.162 144.504L507.117 168.322C508.885 172.316 510.652 176.673 513.934 178.585L550.349 152.492C551.145 151.945 552.043 151.669 552.951 151.693V138.961Z" fill="#0F054C"/>
<path d="M544.794 204.388L506.476 176.697C501.97 173.478 501.97 168.201 506.476 164.958L544.891 137.316C547.422 135.728 550.215 134.901 553.048 134.901C555.881 134.901 558.675 135.728 561.205 137.316L599.621 164.958C604.126 168.201 604.126 173.478 599.621 176.697L561.205 204.34C558.668 205.966 555.857 206.818 553.004 206.827C550.151 206.835 547.338 205.999 544.794 204.388ZM555.573 141.455C554.762 140.948 553.868 140.684 552.961 140.684C552.054 140.684 551.159 140.948 550.349 141.455L511.933 169.097C511.613 169.226 511.334 169.479 511.137 169.818C510.939 170.157 510.832 170.566 510.832 170.985C510.832 171.404 510.939 171.813 511.137 172.152C511.334 172.491 511.613 172.744 511.933 172.873L550.349 200.515C551.159 201.022 552.054 201.286 552.961 201.286C553.868 201.286 554.762 201.022 555.573 200.515L593.989 172.873C594.299 172.732 594.568 172.475 594.758 172.137C594.948 171.8 595.049 171.397 595.049 170.985C595.049 170.573 594.948 170.17 594.758 169.832C594.568 169.495 594.299 169.238 593.989 169.097L555.573 141.455Z" fill="url(#paint14_linear_34_296)"/>
<path d="M593.988 169L555.572 141.358C554.762 140.851 553.867 140.587 552.96 140.587C552.053 140.587 551.159 140.851 550.348 141.358L511.933 169C510.962 169.702 510.651 170.67 510.962 171.566C511.18 171.05 511.519 170.628 511.933 170.355L550.348 142.81C551.159 142.303 552.053 142.039 552.96 142.039C553.867 142.039 554.762 142.303 555.572 142.81L593.988 170.452C594.397 170.725 594.729 171.147 594.939 171.662C595.25 170.67 594.939 169.702 593.988 169Z" fill="white"/>
<path d="M599.525 176.697L561.11 204.339C558.582 205.938 555.787 206.771 552.953 206.771C550.118 206.771 547.323 205.938 544.796 204.339L506.477 176.697C505.639 176.211 504.901 175.491 504.322 174.593C503.743 173.695 503.337 172.642 503.137 171.517C503.094 172.901 503.391 174.268 503.987 175.436C504.584 176.603 505.453 177.516 506.477 178.052L544.796 205.743C547.323 207.342 550.118 208.175 552.953 208.175C555.787 208.175 558.582 207.342 561.11 205.743L599.525 178.101C600.549 177.565 601.418 176.652 602.015 175.484C602.612 174.316 602.909 172.949 602.865 171.565C602.66 172.682 602.252 173.725 601.673 174.614C601.094 175.504 600.359 176.216 599.525 176.697Z" fill="white"/>
<path d="M545.882 203.614L507.466 175.971C503.582 173.164 503.582 168.71 507.466 165.805L545.882 138.163C548.071 136.769 550.493 136.042 552.951 136.042C555.409 136.042 557.832 136.769 560.021 138.163L598.436 165.805C602.32 168.613 602.32 173.067 598.436 175.971L560.021 203.614C557.832 205.007 555.409 205.734 552.951 205.734C550.493 205.734 548.071 205.007 545.882 203.614V203.614ZM556.641 140.68C555.499 139.952 554.234 139.572 552.951 139.572C551.668 139.572 550.403 139.952 549.261 140.68L510.846 168.226C510.398 168.413 510.008 168.77 509.732 169.248C509.456 169.726 509.308 170.3 509.308 170.888C509.308 171.477 509.456 172.051 509.732 172.529C510.008 173.006 510.398 173.364 510.846 173.551L549.203 201.193C550.348 201.909 551.612 202.281 552.893 202.281C554.174 202.281 555.438 201.909 556.583 201.193L595.018 173.551C595.466 173.364 595.855 173.006 596.131 172.529C596.407 172.051 596.555 171.477 596.555 170.888C596.555 170.3 596.407 169.726 596.131 169.248C595.855 168.77 595.466 168.413 595.018 168.226L556.641 140.68Z" fill="url(#paint15_linear_34_296)"/>
<path opacity="0.4" d="M555.574 141.358C554.763 140.851 553.869 140.587 552.962 140.587C552.055 140.587 551.16 140.851 550.35 141.358L511.934 169C511.614 169.129 511.335 169.382 511.137 169.721C510.94 170.06 510.833 170.469 510.833 170.888C510.833 171.307 510.94 171.716 511.137 172.055C511.335 172.394 511.614 172.646 511.934 172.776L550.35 200.418C551.16 200.925 552.055 201.189 552.962 201.189C553.869 201.189 554.763 200.925 555.574 200.418L593.989 172.776C594.3 172.635 594.569 172.378 594.759 172.04C594.948 171.703 595.05 171.3 595.05 170.888C595.05 170.475 594.948 170.073 594.759 169.735C594.569 169.398 594.3 169.141 593.989 169L555.574 141.358Z" fill="#42E8E0"/>
<path d="M526.594 226.337L437.574 288.036L437.564 327.99L437.402 328.339L382.701 366.848L382.162 365.995L436.722 327.385L436.733 287.431L437.337 286.936L526.054 225.484L526.594 226.337Z" fill="url(#paint16_linear_34_296)"/>
<path opacity="0.5" d="M471.023 401.297L486.086 412.153V455.501L471.023 444.664V401.297Z" fill="#758EF5"/>
<path opacity="0.2" d="M455.961 412.153L471.024 422.99V444.664L455.961 433.827V412.153Z" fill="#758EF5"/>
<path opacity="0.5" d="M440.897 336.256L455.96 347.112V433.827L440.897 422.99V336.256Z" fill="#758EF5"/>
<path opacity="0.2" d="M425.819 303.744L440.897 314.581V422.989L425.819 412.152V303.744Z" fill="#758EF5"/>
<path opacity="0.5" d="M410.757 314.581L425.819 325.418V412.153L410.757 401.297V314.581Z" fill="#758EF5"/>
<path opacity="0.2" d="M395.693 238.703L410.756 249.54V401.296L395.693 390.459V238.703Z" fill="#758EF5"/>
<path opacity="0.5" d="M380.632 249.54L395.694 260.377V390.46L380.632 379.623V249.54Z" fill="#758EF5"/>
<path opacity="0.2" d="M365.569 260.376L380.632 271.213V379.622L365.569 368.785V260.376Z" fill="#758EF5"/>
<path opacity="0.5" d="M350.492 206.173L365.57 217.029V368.786L350.492 357.949V206.173Z" fill="#758EF5"/>
<path opacity="0.2" d="M335.429 151.988L350.491 162.825V357.948L335.429 347.092V151.988Z" fill="#758EF5"/>
<path opacity="0.5" d="M320.366 162.825L335.429 173.662V347.092L320.366 336.255V162.825Z" fill="#758EF5"/>
<path opacity="0.2" d="M305.304 108.62L320.366 119.457V336.255L305.304 325.418V108.62Z" fill="#758EF5"/>
<path opacity="0.5" d="M290.225 97.7832L305.303 108.62V325.418L290.225 314.581V97.7832Z" fill="#758EF5"/>
<path opacity="0.2" d="M275.163 43.5791L290.226 54.4161V314.581L275.163 303.744V43.5791Z" fill="#758EF5"/>
<path opacity="0.4" d="M289.96 616.333C366.176 616.333 427.962 571.878 427.962 517.039C427.962 462.201 366.176 417.746 289.96 417.746C213.744 417.746 151.959 462.201 151.959 517.039C151.959 571.878 213.744 616.333 289.96 616.333Z" fill="#0F054C"/>
<path d="M289.961 576.855C376.708 576.855 447.031 526.257 447.031 463.841C447.031 401.425 376.708 350.827 289.961 350.827C203.213 350.827 132.891 401.425 132.891 463.841C132.891 526.257 203.213 576.855 289.961 576.855Z" fill="url(#paint17_linear_34_296)"/>
<path opacity="0.48" d="M447.047 426.628H443.165C436.86 406.502 422.823 387.363 401.036 371.708C339.699 327.566 240.239 327.566 178.979 371.708C158.404 386.512 144.817 404.393 137.969 423.3H133.046V448.36C131.82 478.375 147.131 508.68 178.979 531.573C240.317 575.695 339.776 575.695 401.114 531.573C431.782 509.492 447.125 480.581 447.125 451.65L447.047 426.628Z" fill="url(#paint18_linear_34_296)"/>
<path opacity="0.48" d="M443.165 416.913C442.948 416.216 442.715 415.52 442.466 414.823V398.355H434.236V397.174C432.086 393.578 429.752 390.159 427.249 386.937V398.355H422.59V381.267C420.406 378.79 418.066 376.365 415.571 373.991V398.393H410.913V369.656C408.661 367.721 406.254 365.786 403.863 363.967V398.297H399.204V360.561C396.906 358.948 394.551 357.4 392.139 355.916V398.297H387.48V353.226C385.151 351.936 382.791 350.646 380.399 349.356V398.297H375.741V358.722H368.644V398.355H363.986V369.656H356.858V398.413H352.2V380.532H345.056V398.413H340.491V391.427H333.395V398.413H246.653V391.427H239.479V398.413H234.913V380.532H227.801V398.413H223.143V369.656H216.015V398.413H211.357V358.722H204.26V398.355H199.602V349.375C197.21 350.588 194.85 351.878 192.521 353.246V398.413H187.862V355.936C185.455 357.426 183.095 358.954 180.797 360.561V398.355H176.138V363.967C173.685 365.799 171.335 367.689 169.088 369.637V398.355H164.43V373.894C161.93 376.255 159.6 378.693 157.411 381.17V398.355H152.752V386.744C150.258 389.969 147.925 393.381 145.764 396.961V398.258H137.534V413.449H134.041V455.462C135.403 463.306 137.756 470.831 141.013 477.755V451.572H145.764V486.734C147.916 490.317 150.25 493.723 152.752 496.932V451.572H157.411V502.622C159.6 505.08 161.945 507.518 164.43 509.879V451.572H169.088V514.136C171.345 516.071 173.695 517.968 176.138 519.826V451.572H180.797V523.173C183.095 524.76 185.45 526.302 187.862 527.799V451.572H192.521V530.585C194.85 531.875 197.21 533.165 199.602 534.456V451.63H204.26V536.778C206.589 537.881 208.919 538.926 211.357 539.932V451.572H216.015V541.635C218.375 542.545 220.674 543.396 223.143 544.209V451.572H227.801V545.757C230.162 546.473 232.537 547.17 234.944 547.808V451.63H239.51V548.989C241.886 549.569 244.277 550.092 246.684 550.595V451.572H251.234V551.408C253.61 551.853 256.016 552.24 258.423 552.608V451.572H262.942V553.227C265.334 553.517 267.74 553.769 270.163 554.001V451.572H274.651V554.369C277.073 554.523 279.48 554.659 281.902 554.756V451.572H286.375V554.872C288.818 554.872 291.256 554.872 293.688 554.872V451.572H298.161V554.756C300.583 554.756 302.99 554.523 305.412 554.369V451.572H309.9V554.001C312.323 553.769 314.729 553.517 317.121 553.207V451.572H321.64V552.588C324.047 552.24 326.453 551.833 328.829 551.408V451.572H333.395V550.517C335.802 550.034 338.193 549.492 340.569 548.911V451.572H345.134V547.692C347.541 547.034 349.917 546.357 352.277 545.622V451.572H356.936V544.189C359.327 543.377 361.703 542.506 364.063 541.616V451.572H368.722V539.758C371.113 538.771 373.489 537.823 375.818 536.623V451.572H380.477V534.359C382.868 533.14 385.229 531.882 387.558 530.488V451.572H392.216V527.799C394.628 526.302 396.984 524.76 399.282 523.173V451.572H403.94V519.787C406.394 517.929 408.744 516.026 410.99 514.078V451.572H415.649V509.821C418.133 507.434 420.473 505.009 422.668 502.545V451.572H427.326V496.874C429.833 493.657 432.167 490.237 434.314 486.637V451.572H438.988V477.678C442.271 470.693 444.625 463.093 445.96 455.171V416.932L443.165 416.913Z" fill="url(#paint19_linear_34_296)"/>
<path d="M289.961 529.967C376.708 529.967 447.031 479.368 447.031 416.952C447.031 354.536 376.708 303.938 289.961 303.938C203.213 303.938 132.891 354.536 132.891 416.952C132.891 479.368 203.213 529.967 289.961 529.967Z" fill="url(#paint20_linear_34_296)"/>
<path opacity="0.3" d="M290.023 303.86C254.432 303.86 218.841 312.51 189.865 329.791L143 456.739C150.64 471.35 162.581 485.031 178.902 496.778C189.434 504.251 200.554 510.36 212.086 515.007L290.023 303.86Z" fill="#91A2FA"/>
<path opacity="0.3" d="M334.03 308.466L253.406 526.87C272.889 530.167 292.602 530.816 312.197 528.805L386.407 327.76C369.679 318.573 352.078 312.089 334.03 308.466V308.466Z" fill="#91A2FA"/>
<g opacity="0.05">
<path opacity="0.05" d="M289.961 517.039C366.786 517.039 429.065 472.229 429.065 416.952C429.065 361.675 366.786 316.865 289.961 316.865C213.136 316.865 150.857 361.675 150.857 416.952C150.857 472.229 213.136 517.039 289.961 517.039Z" fill="url(#paint21_linear_34_296)"/>
<g opacity="0.05">
<path opacity="0.05" d="M41.4907 416.526L40 415.443L282.337 241.083L283.828 242.167L41.4907 416.526Z" fill="#91A2FA"/>
<path opacity="0.05" d="M45.7608 419.583L44.27 418.519L286.607 244.16L288.098 245.224L45.7608 419.583Z" fill="#91A2FA"/>
<path opacity="0.05" d="M50.0317 422.661L48.541 421.597L290.878 247.238L292.369 248.302L50.0317 422.661Z" fill="#91A2FA"/>
<path opacity="0.05" d="M54.3018 425.738L52.811 424.674L295.148 250.314L296.639 251.379L54.3018 425.738Z" fill="#91A2FA"/>
<path opacity="0.05" d="M58.5723 428.815L57.0815 427.731L299.418 253.372L300.909 254.456L58.5723 428.815Z" fill="#91A2FA"/>
<path opacity="0.05" d="M62.8423 431.872L61.3516 430.808L303.688 256.448L305.179 257.513L62.8423 431.872Z" fill="#91A2FA"/>
<path opacity="0.05" d="M67.1128 434.948L65.6221 433.884L307.959 259.525L309.434 260.589L67.1128 434.948Z" fill="#91A2FA"/>
<path opacity="0.05" d="M71.3833 438.026L69.8926 436.962L312.229 262.602L313.705 263.667L71.3833 438.026Z" fill="#91A2FA"/>
<path opacity="0.05" d="M75.6533 441.104L74.1626 440.02L316.499 265.661L317.975 266.725L75.6533 441.104Z" fill="#91A2FA"/>
<path opacity="0.05" d="M79.9238 444.161L78.4331 443.096L320.77 268.737L322.245 269.801L79.9238 444.161Z" fill="#91A2FA"/>
<path opacity="0.05" d="M84.1783 447.237L82.7031 446.173L325.04 271.814L326.515 272.878L84.1783 447.237Z" fill="#91A2FA"/>
<path opacity="0.05" d="M88.4488 450.315L86.9736 449.25L329.31 274.891L330.786 275.955L88.4488 450.315Z" fill="#91A2FA"/>
<path opacity="0.05" d="M92.7193 453.372L91.2441 452.307L333.581 277.948L335.056 279.012L92.7193 453.372Z" fill="#91A2FA"/>
<path opacity="0.05" d="M96.9898 456.449L95.5146 455.384L337.852 281.025L339.327 282.089L96.9898 456.449Z" fill="#91A2FA"/>
<path opacity="0.05" d="M101.26 459.526L99.7847 458.461L342.122 284.102L343.597 285.166L101.26 459.526Z" fill="#91A2FA"/>
<path opacity="0.05" d="M105.531 462.603L104.04 461.538L346.377 287.16L347.868 288.243L105.531 462.603Z" fill="#91A2FA"/>
<path opacity="0.05" d="M109.801 465.68L108.31 464.596L350.647 290.237L352.138 291.301L109.801 465.68Z" fill="#91A2FA"/>
<path opacity="0.05" d="M114.071 468.738L112.581 467.673L354.917 293.314L356.408 294.378L114.071 468.738Z" fill="#91A2FA"/>
<path opacity="0.05" d="M118.341 471.814L116.851 470.75L359.187 296.391L360.678 297.455L118.341 471.814Z" fill="#91A2FA"/>
<path opacity="0.05" d="M122.612 474.891L121.121 473.808L363.458 299.448L364.949 300.532L122.612 474.891Z" fill="#91A2FA"/>
<path opacity="0.05" d="M126.882 477.949L125.392 476.884L367.728 302.525L369.219 303.589L126.882 477.949Z" fill="#91A2FA"/>
<path opacity="0.05" d="M131.152 481.026L129.662 479.961L371.999 305.602L373.489 306.666L131.152 481.026Z" fill="#91A2FA"/>
<path opacity="0.05" d="M135.423 484.103L133.932 483.038L376.269 308.679L377.76 309.744L135.423 484.103Z" fill="#91A2FA"/>
<path opacity="0.05" d="M139.693 487.179L138.202 486.115L380.539 311.736L382.03 312.82L139.693 487.179Z" fill="#91A2FA"/>
<path opacity="0.05" d="M143.963 490.237L142.473 489.172L384.81 314.813L386.3 315.877L143.963 490.237Z" fill="#91A2FA"/>
<path opacity="0.05" d="M148.234 493.313L146.743 492.249L389.08 317.89L390.555 318.954L148.234 493.313Z" fill="#91A2FA"/>
<path opacity="0.05" d="M152.504 496.39L151.014 495.326L393.35 320.967L394.826 322.031L152.504 496.39Z" fill="#91A2FA"/>
<path opacity="0.05" d="M156.759 499.467L155.284 498.384L397.621 324.024L399.096 325.108L156.759 499.467Z" fill="#91A2FA"/>
<path opacity="0.05" d="M161.029 502.525L159.554 501.461L401.891 327.102L403.366 328.166L161.029 502.525Z" fill="#91A2FA"/>
<path opacity="0.05" d="M165.299 505.602L163.824 504.538L406.161 330.178L407.636 331.243L165.299 505.602Z" fill="#91A2FA"/>
<path opacity="0.05" d="M169.57 508.679L168.095 507.614L410.432 333.255L411.907 334.319L169.57 508.679Z" fill="#91A2FA"/>
<path opacity="0.05" d="M173.84 511.756L172.365 510.672L414.702 336.313L416.177 337.378L173.84 511.756Z" fill="#91A2FA"/>
<path opacity="0.05" d="M178.11 514.813L176.635 513.749L418.957 339.39L420.447 340.454L178.11 514.813Z" fill="#91A2FA"/>
<path opacity="0.05" d="M182.38 517.891L180.905 516.826L423.242 342.467L424.717 343.531L182.38 517.891Z" fill="#91A2FA"/>
<path opacity="0.05" d="M186.651 520.968L185.176 519.903L427.497 345.525L428.988 346.608L186.651 520.968Z" fill="#91A2FA"/>
<path opacity="0.05" d="M190.921 524.044L189.446 522.961L431.768 348.601L433.258 349.685L190.921 524.044Z" fill="#91A2FA"/>
<path opacity="0.05" d="M195.192 527.101L193.701 526.037L436.038 351.678L437.529 352.742L195.192 527.101Z" fill="#91A2FA"/>
<path opacity="0.05" d="M199.462 530.179L197.972 529.115L440.309 354.756L441.799 355.82L199.462 530.179Z" fill="#91A2FA"/>
<path opacity="0.05" d="M203.733 533.256L202.242 532.191L444.579 357.813L446.07 358.896L203.733 533.256Z" fill="#91A2FA"/>
<path opacity="0.05" d="M208.002 536.333L206.512 535.249L448.849 360.89L450.339 361.974L208.002 536.333Z" fill="#91A2FA"/>
<path opacity="0.05" d="M212.273 539.39L210.782 538.326L453.119 363.967L454.61 365.031L212.273 539.39Z" fill="#91A2FA"/>
<path opacity="0.05" d="M216.544 542.467L215.054 541.402L457.391 367.043L458.881 368.107L216.544 542.467Z" fill="#91A2FA"/>
<path opacity="0.05" d="M220.814 545.545L219.323 544.48L461.66 370.121L463.151 371.185L220.814 545.545Z" fill="#91A2FA"/>
<path opacity="0.05" d="M225.084 548.622L223.594 547.538L465.931 373.179L467.421 374.243L225.084 548.622Z" fill="#91A2FA"/>
<path opacity="0.05" d="M229.355 551.679L227.864 550.615L470.201 376.255L471.692 377.32L229.355 551.679Z" fill="#91A2FA"/>
<path opacity="0.05" d="M233.626 554.756L232.135 553.691L474.472 379.332L475.962 380.396L233.626 554.756Z" fill="#91A2FA"/>
<path opacity="0.05" d="M237.895 557.833L236.404 556.768L478.741 382.39L480.232 383.473L237.895 557.833Z" fill="#91A2FA"/>
<path opacity="0.05" d="M242.166 560.89L240.675 559.826L483.012 385.466L484.487 386.531L242.166 560.89Z" fill="#91A2FA"/>
<path opacity="0.05" d="M246.436 563.968L244.945 562.903L487.282 388.544L488.757 389.608L246.436 563.968Z" fill="#91A2FA"/>
<path opacity="0.05" d="M250.69 567.044L249.215 565.98L491.552 391.621L493.027 392.685L250.69 567.044Z" fill="#91A2FA"/>
<path opacity="0.05" d="M254.961 570.121L253.485 569.057L495.822 394.678L497.297 395.762L254.961 570.121Z" fill="#91A2FA"/>
<path opacity="0.05" d="M259.232 573.179L257.757 572.114L500.094 397.755L501.569 398.819L259.232 573.179Z" fill="#91A2FA"/>
<path opacity="0.05" d="M263.503 576.255L262.027 575.191L504.364 400.832L505.839 401.896L263.503 576.255Z" fill="#91A2FA"/>
<path opacity="0.05" d="M267.772 579.333L266.297 578.268L508.634 403.909L510.109 404.974L267.772 579.333Z" fill="#91A2FA"/>
<path opacity="0.05" d="M272.042 582.41L270.551 581.326L512.888 406.967L514.378 408.051L272.042 582.41Z" fill="#91A2FA"/>
<path opacity="0.05" d="M276.312 585.467L274.821 584.403L517.158 410.043L518.649 411.108L276.312 585.467Z" fill="#91A2FA"/>
<path opacity="0.05" d="M280.583 588.544L279.092 587.479L521.429 413.12L522.919 414.184L280.583 588.544Z" fill="#91A2FA"/>
<path opacity="0.05" d="M284.852 591.621L283.361 590.557L525.698 416.197L527.189 417.262L284.852 591.621Z" fill="#91A2FA"/>
<path opacity="0.05" d="M289.123 594.697L287.632 593.613L529.969 419.254L531.459 420.338L289.123 594.697Z" fill="#91A2FA"/>
<path opacity="0.05" d="M293.393 597.756L291.902 596.692L534.239 422.333L535.73 423.397L293.393 597.756Z" fill="#91A2FA"/>
<path opacity="0.05" d="M297.663 600.833L296.172 599.768L538.509 425.409L540 426.473L297.663 600.833Z" fill="#91A2FA"/>
</g>
</g>
<path d="M191.605 352.917C245.954 313.846 334 313.846 388.334 352.917C414.298 371.611 427.839 395.84 428.988 420.319C430.23 393.595 416.689 366.58 388.334 346.183C333.985 307.092 245.923 307.092 191.605 346.183C163.25 366.58 149.678 393.595 150.951 420.319C152.1 395.84 165.688 371.592 191.605 352.917Z" fill="url(#paint22_linear_34_296)"/>
<path d="M332.96 395.762C324.677 394.847 316.343 396.585 308.751 400.812C318.068 391.136 315.92 381.248 302.307 371.146L301.297 370.411C296.882 367.133 292.142 364.589 287.198 362.844C282.518 361.145 277.676 360.24 272.803 360.154C268.15 360.192 263.518 360.946 259.013 362.399C256.498 363.199 254.096 364.089 251.808 365.07L243.05 358.761L230.162 368.03L237.367 373.236C236.093 374.088 234.805 374.978 233.485 375.926L228.826 379.332L221.683 374.184L208.794 383.454L215.938 388.601L207.04 395.007L203.561 397.523L202.614 398.181L187.831 408.824L200.72 418.113L215.503 407.469L308.394 474.349L293.595 484.992L306.484 494.262L321.283 483.619L325.708 480.445L334.606 474.039L341.873 479.264L354.762 469.995L350.103 466.686L347.448 464.751L356.004 458.597L363.271 463.822L376.16 454.552L371.502 451.243L367.806 448.572C372.884 443.057 375.57 437.484 375.912 431.872C376.284 423.486 370.694 415.1 359.141 406.715L358.364 406.134C350.589 400.451 341.926 396.914 332.96 395.762V395.762ZM246.435 392.007L250.582 389.008C260.851 381.628 270.686 381.306 280.086 388.04C285.583 391.911 288.564 395.607 289.077 398.877C289.589 402.148 287.011 405.824 281.312 409.888L276.297 413.488L246.435 392.007ZM329.233 451.572L293.564 425.97L298.72 422.254C303.621 418.385 309.316 416.368 315.118 416.449C320.232 416.758 326.133 419.338 332.82 424.189C338.783 428.485 342.003 432.452 342.479 436.091C342.96 439.729 340.351 443.599 334.715 447.702L329.233 451.572Z" fill="url(#paint23_linear_34_296)"/>
<path d="M208.717 370.43V380.725L215.86 375.578L208.717 370.43Z" fill="url(#paint24_linear_34_296)"/>
<path d="M230.161 355.007V365.302L237.366 360.213L230.161 355.007Z" fill="url(#paint25_linear_34_296)"/>
<path d="M314.45 375.596V387.827L307.99 382.892L314.45 375.596Z" fill="url(#paint26_linear_34_296)"/>
<path d="M375.99 416.952V431.892L366.3 424.422L375.99 416.952Z" fill="url(#paint27_linear_34_296)"/>
<path d="M332.96 382.738C324.677 381.823 316.343 383.562 308.751 387.789C318.068 378.113 315.92 368.218 302.307 358.104L301.297 357.388C296.882 354.11 292.142 351.566 287.198 349.821C282.52 348.112 277.677 347.207 272.803 347.131C268.15 347.168 263.518 347.922 259.013 349.376C256.498 350.163 254.096 351.053 251.808 352.046L243.05 345.738L230.162 355.007L237.367 360.213C236.093 361.064 234.805 361.955 233.485 362.903L228.826 366.309L221.683 361.161L208.794 370.431L215.938 375.578L207.04 381.984L203.561 384.48L202.614 385.157L187.831 395.801L200.72 405.09L215.503 394.446L308.472 461.326L293.673 471.969L306.562 481.239L321.36 470.595L325.786 467.422L334.684 461.016L341.951 466.241L354.839 456.972L350.181 453.663L347.526 451.727L356.082 445.574L363.349 450.798L376.238 441.529L371.579 438.22L367.883 435.549C372.961 430.034 375.648 424.461 375.989 418.849C376.362 410.463 370.772 402.077 359.219 393.691L358.442 393.13C350.648 387.419 341.956 383.874 332.96 382.738V382.738ZM246.435 378.984L250.581 375.985C260.851 368.605 270.686 368.283 280.086 375.017C285.583 378.887 288.564 382.584 289.077 385.854C289.589 389.124 287.011 392.801 281.312 396.865L276.297 400.465L246.435 378.984ZM329.233 438.549L293.626 412.946L298.782 409.231C303.683 405.361 309.378 403.345 315.18 403.425C320.294 403.735 326.195 406.315 332.882 411.166C338.845 415.462 342.065 419.429 342.541 423.067C343.022 426.706 340.414 430.576 334.777 434.678L329.233 438.549Z" fill="url(#paint28_linear_34_296)"/>
<path d="M376.206 441.548V454.572L363.317 463.841V450.817L376.206 441.548Z" fill="url(#paint29_linear_34_296)"/>
<path d="M354.762 456.971V469.995L341.873 479.265V466.241L354.762 456.971Z" fill="url(#paint30_linear_34_296)"/>
<path d="M306.498 481.239V494.263L293.594 484.993V471.969L306.498 481.239Z" fill="url(#paint31_linear_34_296)"/>
<path d="M187.754 395.8V408.843L200.643 418.112V405.089L187.754 395.8Z" fill="url(#paint32_linear_34_296)"/>
<path d="M215.425 407.47V394.446L200.642 405.09V418.113L215.425 407.47Z" fill="url(#paint33_linear_34_296)"/>
<path d="M215.424 394.446V407.47L299.34 467.847L308.393 461.326L215.424 394.446Z" fill="url(#paint34_linear_34_296)"/>
<path d="M291.887 322.767C286.404 322.909 280.983 321.296 276.141 318.084C271.762 314.949 269.355 310.691 269.355 306.124C269.355 301.557 271.762 297.319 276.141 294.165C284.822 287.934 298.953 287.934 307.649 294.165C312.012 297.319 314.419 301.577 314.419 306.124C314.419 310.672 312.012 314.949 307.649 318.084C302.802 321.296 297.376 322.909 291.887 322.767V322.767ZM291.887 291.61C286.702 291.492 281.578 293.016 276.995 296.042C273.191 298.79 271.095 302.37 271.095 306.124C271.095 309.879 273.191 313.478 277.011 316.226C285.21 322.128 298.564 322.128 306.779 316.226C310.583 313.478 312.695 309.898 312.695 306.124C312.695 302.351 310.583 298.79 306.779 296.042C302.197 293.014 297.072 291.489 291.887 291.61V291.61Z" fill="#91A2FA"/>
<path d="M301.22 312.84C298.334 314.668 295.142 315.622 291.903 315.622C288.665 315.622 285.473 314.668 282.586 312.84C277.431 309.143 277.431 303.164 282.586 299.429C285.473 297.6 288.665 296.647 291.903 296.647C295.142 296.647 298.334 297.6 301.22 299.429C306.36 303.125 306.36 309.143 301.22 312.84Z" fill="#97A6FC"/>
<path d="M346.282 273.632L337.043 266.995L352.773 255.674L362.028 262.311L346.282 273.632Z" fill="#91A2FA"/>
<path opacity="0.8" d="M329.667 263.144L318.021 258.867L328.13 244.605L339.776 248.882L329.667 263.144Z" fill="#91A2FA"/>
<path opacity="0.6" d="M309.357 256.836L296.453 255.365L299.931 239.555L312.836 241.025L309.357 256.836Z" fill="#91A2FA"/>
<path opacity="0.4" d="M287.336 255.365L274.417 256.836L270.938 241.025L283.843 239.555L287.336 255.365Z" fill="#91A2FA"/>
<path opacity="0.2" d="M265.753 258.867L254.106 263.144L244.013 248.863L255.643 244.605L265.753 258.867Z" fill="#91A2FA"/>
<path opacity="0.1" d="M246.729 266.995L237.49 273.632L221.76 262.311L230.999 255.674L246.729 266.995Z" fill="#91A2FA"/>
<path opacity="0.2" d="M315.444 291.533L312.198 289.191L335.677 272.297L338.923 274.638L315.444 291.533Z" fill="#91A2FA"/>
<path opacity="0.4" d="M308.006 287.005L303.922 285.495L319 264.208L323.084 265.718L308.006 287.005Z" fill="#91A2FA"/>
<path opacity="0.6" d="M299.015 284.354L294.48 283.831L299.667 260.241L304.201 260.764L299.015 284.354Z" fill="#91A2FA"/>
<path opacity="0.8" d="M289.31 283.831L284.775 284.354L279.573 260.764L284.108 260.241L289.31 283.831Z" fill="#91A2FA"/>
<path d="M279.853 285.495L275.769 287.005L260.69 265.718L264.79 264.208L279.853 285.495Z" fill="#91A2FA"/>
<path d="M271.591 289.191L268.345 291.533L244.866 274.638L248.112 272.297L271.591 289.191Z" fill="#91A2FA"/>
<path d="M265.302 294.532L263.221 297.474L233.64 286.617L235.72 283.676L265.302 294.532Z" fill="#91A2FA"/>
<path d="M261.621 301.015L260.906 304.266L228.11 300.531L228.825 297.261L261.621 301.015Z" fill="#91A2FA"/>
<path d="M260.906 307.982L261.621 311.252L228.825 314.987L228.11 311.717L260.906 307.982Z" fill="#91A2FA"/>
<path d="M263.221 314.794L265.302 317.735L235.72 328.572L233.64 325.631L263.221 314.794Z" fill="#91A2FA"/>
<path d="M268.345 320.735L271.591 323.077L248.112 339.971L244.866 337.629L268.345 320.735Z" fill="#91A2FA"/>
<path opacity="0.6" d="M384.11 251.281C418.63 281.238 420.556 324.063 389.934 355.49L402.356 369.752C444.609 331.862 443.677 277.309 399.608 240.096L384.11 251.281Z" fill="#97A6FC"/>
<path opacity="0.2" d="M310.568 391.176C274.061 395.298 235.395 387.306 207.273 367.025C201.132 362.677 195.403 357.484 190.192 351.543L169.12 356.768C175.899 365.075 183.527 372.233 191.807 378.055C227.382 403.638 277.213 412.734 322.898 405.361L310.568 391.176Z" fill="#91A2FA"/>
<path d="M151.852 320.58L172.924 315.355C169.197 290.353 180.688 264.402 207.273 245.244C251.311 213.565 321.112 211.746 368.132 239.767L383.583 228.659C328.006 194.523 244.401 196.342 191.853 234.155C159.103 257.706 145.78 289.946 151.852 320.58Z" fill="#97A6FC"/>
<path d="M278.983 363.058L270.737 357.136L376.61 280.948L384.856 286.87L278.983 363.058Z" fill="#97A6FC"/>
<path opacity="0.8" d="M290.691 371.494L282.445 365.553L328.472 332.443L336.717 338.384L290.691 371.494Z" fill="#97A6FC"/>
<path opacity="0.6" d="M303.223 380.512L294.978 374.571L368.241 321.876L376.486 327.798L303.223 380.512Z" fill="#97A6FC"/>
<path opacity="0.2" d="M315.568 389.376L307.307 383.454L364.343 342.428L372.588 348.35L315.568 389.376Z" fill="#97A6FC"/>
<defs>
<linearGradient id="paint0_linear_34_296" x1="513.951" y1="660.056" x2="600.984" y2="700.391" gradientUnits="userSpaceOnUse">
<stop stop-color="#BCBEFF"/>
<stop offset="0.23" stop-color="#AAADF8"/>
<stop offset="0.68" stop-color="#7C83E5"/>
<stop offset="1" stop-color="#5761D7"/>
</linearGradient>
<linearGradient id="paint1_linear_34_296" x1="504.003" y1="681.623" x2="603.935" y2="681.623" gradientUnits="userSpaceOnUse">
<stop stop-color="#E9E9FD"/>
<stop offset="0.36" stop-color="#D3D2F9"/>
<stop offset="0.71" stop-color="#C5C4F7"/>
<stop offset="1" stop-color="#C0BFF6"/>
</linearGradient>
<linearGradient id="paint2_linear_34_296" x1="52360" y1="11864.2" x2="54666.6" y2="14553.6" gradientUnits="userSpaceOnUse">
<stop stop-color="#BCBEFF"/>
<stop offset="0.23" stop-color="#AAADF8"/>
<stop offset="0.68" stop-color="#7C83E5"/>
<stop offset="1" stop-color="#5761D7"/>
</linearGradient>
<linearGradient id="paint3_linear_34_296" x1="51816.9" y1="17526" x2="56956.7" y2="17526" gradientUnits="userSpaceOnUse">
<stop stop-color="#E9E9FD"/>
<stop offset="0.36" stop-color="#D3D2F9"/>
<stop offset="0.71" stop-color="#C5C4F7"/>
<stop offset="1" stop-color="#C0BFF6"/>
</linearGradient>
<linearGradient id="paint4_linear_34_296" x1="364.959" y1="564.635" x2="535.052" y2="564.635" gradientUnits="userSpaceOnUse">
<stop stop-color="#5778FF"/>
<stop offset="0.1042" stop-color="#567FFF"/>
<stop offset="0.2607" stop-color="#5394FF"/>
<stop offset="0.4503" stop-color="#4DB6FF"/>
<stop offset="0.6638" stop-color="#46E4FF"/>
<stop offset="0.7742" stop-color="#42FFFF"/>
</linearGradient>
<linearGradient id="paint5_linear_34_296" x1="43049.8" y1="14743.9" x2="45356.4" y2="17433.3" gradientUnits="userSpaceOnUse">
<stop stop-color="#BCBEFF"/>
<stop offset="0.23" stop-color="#AAADF8"/>
<stop offset="0.68" stop-color="#7C83E5"/>
<stop offset="1" stop-color="#5761D7"/>
</linearGradient>
<linearGradient id="paint6_linear_34_296" x1="42531.6" y1="21714.5" x2="47674.8" y2="21714.5" gradientUnits="userSpaceOnUse">
<stop stop-color="#E9E9FD"/>
<stop offset="0.36" stop-color="#D3D2F9"/>
<stop offset="0.71" stop-color="#C5C4F7"/>
<stop offset="1" stop-color="#C0BFF6"/>
</linearGradient>
<linearGradient id="paint7_linear_34_296" x1="43049.8" y1="13064.3" x2="45355.7" y2="15753.1" gradientUnits="userSpaceOnUse">
<stop stop-color="#BCBEFF"/>
<stop offset="0.23" stop-color="#AAADF8"/>
<stop offset="0.68" stop-color="#7C83E5"/>
<stop offset="1" stop-color="#5761D7"/>
</linearGradient>
<linearGradient id="paint8_linear_34_296" x1="42531.6" y1="19304.2" x2="47674.8" y2="19304.2" gradientUnits="userSpaceOnUse">
<stop stop-color="#E9E9FD"/>
<stop offset="0.36" stop-color="#D3D2F9"/>
<stop offset="0.71" stop-color="#C5C4F7"/>
<stop offset="1" stop-color="#C0BFF6"/>
</linearGradient>
<linearGradient id="paint9_linear_34_296" x1="224.231" y1="584.831" x2="54.139" y2="585.638" gradientUnits="userSpaceOnUse">
<stop stop-color="#5778FF"/>
<stop offset="0.1042" stop-color="#567FFF"/>
<stop offset="0.2607" stop-color="#5394FF"/>
<stop offset="0.4503" stop-color="#4DB6FF"/>
<stop offset="0.6638" stop-color="#46E4FF"/>
<stop offset="0.7742" stop-color="#42FFFF"/>
</linearGradient>
<linearGradient id="paint10_linear_34_296" x1="26610.7" y1="6427.12" x2="28917" y2="9113.71" gradientUnits="userSpaceOnUse">
<stop stop-color="#BCBEFF"/>
<stop offset="0.23" stop-color="#AAADF8"/>
<stop offset="0.68" stop-color="#7C83E5"/>
<stop offset="1" stop-color="#5761D7"/>
</linearGradient>
<linearGradient id="paint11_linear_34_296" x1="26074.4" y1="9837.38" x2="31208.5" y2="9837.38" gradientUnits="userSpaceOnUse">
<stop stop-color="#E9E9FD"/>
<stop offset="0.36" stop-color="#D3D2F9"/>
<stop offset="0.71" stop-color="#C5C4F7"/>
<stop offset="1" stop-color="#C0BFF6"/>
</linearGradient>
<linearGradient id="paint12_linear_34_296" x1="26610.7" y1="4915.85" x2="28922.6" y2="7603.29" gradientUnits="userSpaceOnUse">
<stop stop-color="#BCBEFF"/>
<stop offset="0.23" stop-color="#AAADF8"/>
<stop offset="0.68" stop-color="#7C83E5"/>
<stop offset="1" stop-color="#5761D7"/>
</linearGradient>
<linearGradient id="paint13_linear_34_296" x1="517.702" y1="145.497" x2="595.285" y2="181.437" gradientUnits="userSpaceOnUse">
<stop offset="0.24" stop-color="#5761D7"/>
<stop offset="0.39" stop-color="#7A82E5"/>
<stop offset="0.55" stop-color="#979CF0"/>
<stop offset="0.7" stop-color="#ACAFF8"/>
<stop offset="0.85" stop-color="#B8BAFD"/>
<stop offset="1" stop-color="#BCBEFF"/>
</linearGradient>
<linearGradient id="paint14_linear_34_296" x1="26099.3" y1="7658.36" x2="31238.4" y2="7658.36" gradientUnits="userSpaceOnUse">
<stop stop-color="#E9E9FD"/>
<stop offset="0.36" stop-color="#D3D2F9"/>
<stop offset="0.71" stop-color="#C5C4F7"/>
<stop offset="1" stop-color="#C0BFF6"/>
</linearGradient>
<linearGradient id="paint15_linear_34_296" x1="25381.1" y1="7425.8" x2="30207.3" y2="7425.8" gradientUnits="userSpaceOnUse">
<stop stop-color="#E9E9FD"/>
<stop offset="0.36" stop-color="#D3D2F9"/>
<stop offset="0.71" stop-color="#C5C4F7"/>
<stop offset="1" stop-color="#C0BFF6"/>
</linearGradient>
<linearGradient id="paint16_linear_34_296" x1="411.839" y1="387.853" x2="527.742" y2="226.623" gradientUnits="userSpaceOnUse">
<stop stop-color="#5778FF"/>
<stop offset="0.1042" stop-color="#567FFF"/>
<stop offset="0.2607" stop-color="#5394FF"/>
<stop offset="0.4503" stop-color="#4DB6FF"/>
<stop offset="0.6638" stop-color="#46E4FF"/>
<stop offset="0.7742" stop-color="#42FFFF"/>
</linearGradient>
<linearGradient id="paint17_linear_34_296" x1="99913" y1="-20168.1" x2="125446" y2="13126.2" gradientUnits="userSpaceOnUse">
<stop stop-color="#35068C"/>
<stop offset="0.02" stop-color="#40DDDA"/>
<stop offset="0.09" stop-color="#3AAEC0"/>
<stop offset="0.17" stop-color="#3484A9"/>
<stop offset="0.26" stop-color="#2F6195"/>
<stop offset="0.35" stop-color="#2B4486"/>
<stop offset="0.44" stop-color="#282E79"/>
<stop offset="0.54" stop-color="#261E71"/>
<stop offset="0.66" stop-color="#24156C"/>
<stop offset="0.82" stop-color="#24126A"/>
</linearGradient>
<linearGradient id="paint18_linear_34_296" x1="109.179" y1="451.572" x2="420.214" y2="451.572" gradientUnits="userSpaceOnUse">
<stop stop-color="#3671E9"/>
<stop offset="0.15" stop-color="#91A2FA"/>
<stop offset="0.33" stop-color="#8B97F1"/>
<stop offset="0.52" stop-color="#7366C8"/>
<stop offset="0.72" stop-color="#654CB3"/>
<stop offset="0.93" stop-color="#4127A7"/>
<stop offset="1" stop-color="#260672"/>
</linearGradient>
<linearGradient id="paint19_linear_34_296" x1="22161.8" y1="56171.5" x2="84817.1" y2="56171.5" gradientUnits="userSpaceOnUse">
<stop stop-color="#42E8E0"/>
<stop offset="0.15" stop-color="#43E3E0"/>
<stop offset="0.33" stop-color="#45D5DF"/>
<stop offset="0.52" stop-color="#49BDDD"/>
<stop offset="0.72" stop-color="#4E9CDB"/>
<stop offset="0.93" stop-color="#5472D8"/>
<stop offset="1" stop-color="#5761D7"/>
</linearGradient>
<linearGradient id="paint20_linear_34_296" x1="102648" y1="-27693.6" x2="128181" y2="5600.47" gradientUnits="userSpaceOnUse">
<stop stop-color="#654CB2"/>
<stop offset="0.02" stop-color="#40DDDA"/>
<stop offset="0.09" stop-color="#3AAEC0"/>
<stop offset="0.17" stop-color="#3484A9"/>
<stop offset="0.26" stop-color="#2F6195"/>
<stop offset="0.35" stop-color="#2B4486"/>
<stop offset="0.44" stop-color="#282E79"/>
<stop offset="0.54" stop-color="#261E71"/>
<stop offset="0.66" stop-color="#24156C"/>
<stop offset="0.82" stop-color="#24126A"/>
</linearGradient>
<linearGradient id="paint21_linear_34_296" x1="265.442" y1="264.247" x2="383.628" y2="738.163" gradientUnits="userSpaceOnUse">
<stop stop-color="#42E8E0"/>
<stop offset="0.02" stop-color="#40DDDA"/>
<stop offset="0.09" stop-color="#3AAEC0"/>
<stop offset="0.17" stop-color="#3484A9"/>
<stop offset="0.26" stop-color="#2F6195"/>
<stop offset="0.35" stop-color="#2B4486"/>
<stop offset="0.44" stop-color="#282E79"/>
<stop offset="0.54" stop-color="#261E71"/>
<stop offset="0.66" stop-color="#24156C"/>
<stop offset="0.82" stop-color="#24126A"/>
</linearGradient>
<linearGradient id="paint22_linear_34_296" x1="150.873" y1="368.592" x2="429.065" y2="368.592" gradientUnits="userSpaceOnUse">
<stop stop-color="#2B237C"/>
<stop offset="1" stop-color="#180D5B"/>
</linearGradient>
<linearGradient id="paint23_linear_34_296" x1="20001.9" y1="35369.5" x2="42857.5" y2="35369.5" gradientUnits="userSpaceOnUse">
<stop stop-color="#2B237C"/>
<stop offset="1" stop-color="#180D5B"/>
</linearGradient>
<linearGradient id="paint24_linear_34_296" x1="1070.96" y1="2720.93" x2="1077.31" y2="2795.09" gradientUnits="userSpaceOnUse">
<stop stop-color="#2B237D"/>
<stop offset="0.02" stop-color="#40DDDA"/>
<stop offset="0.09" stop-color="#3AAEC0"/>
<stop offset="0.17" stop-color="#3484A9"/>
<stop offset="0.26" stop-color="#2F6195"/>
<stop offset="0.35" stop-color="#2B4486"/>
<stop offset="0.44" stop-color="#282E79"/>
<stop offset="0.54" stop-color="#261E71"/>
<stop offset="0.66" stop-color="#24156C"/>
<stop offset="0.82" stop-color="#24126A"/>
</linearGradient>
<linearGradient id="paint25_linear_34_296" x1="1199.55" y1="2623.43" x2="1205.71" y2="2697.6" gradientUnits="userSpaceOnUse">
<stop stop-color="#2C247E"/>
<stop offset="0.02" stop-color="#40DDDA"/>
<stop offset="0.09" stop-color="#3AAEC0"/>
<stop offset="0.17" stop-color="#3484A9"/>
<stop offset="0.26" stop-color="#2F6195"/>
<stop offset="0.35" stop-color="#2B4486"/>
<stop offset="0.44" stop-color="#282E79"/>
<stop offset="0.54" stop-color="#261E71"/>
<stop offset="0.66" stop-color="#24156C"/>
<stop offset="0.82" stop-color="#24126A"/>
</linearGradient>
<linearGradient id="paint26_linear_34_296" x1="1500.15" y1="3201.3" x2="1511.86" y2="3305.66" gradientUnits="userSpaceOnUse">
<stop stop-color="#2B237C"/>
<stop offset="1" stop-color="#180D5B"/>
</linearGradient>
<linearGradient id="paint27_linear_34_296" x1="2503.46" y1="4242.53" x2="2588.09" y2="4254.06" gradientUnits="userSpaceOnUse">
<stop stop-color="#2B237C"/>
<stop offset="1" stop-color="#180D5B"/>
</linearGradient>
<linearGradient id="paint28_linear_34_296" x1="20982.3" y1="32733.2" x2="93751.3" y2="53937.4" gradientUnits="userSpaceOnUse">
<stop stop-color="#654DB3"/>
<stop offset="0.0899" stop-color="#40DDDA"/>
<stop offset="0.09" stop-color="#E9E9FE"/>
<stop offset="0.17" stop-color="#654DB3"/>
<stop offset="0.26" stop-color="#2F6195"/>
<stop offset="0.35" stop-color="#2B4486"/>
<stop offset="0.44" stop-color="#282E79"/>
<stop offset="0.54" stop-color="#261E71"/>
<stop offset="0.66" stop-color="#24156C"/>
<stop offset="0.82" stop-color="#24126A"/>
</linearGradient>
<linearGradient id="paint29_linear_34_296" x1="3177.82" y1="6484.36" x2="3317.58" y2="6501.31" gradientUnits="userSpaceOnUse">
<stop stop-color="#2B237C"/>
<stop offset="1" stop-color="#180D5B"/>
</linearGradient>
<linearGradient id="paint30_linear_34_296" x1="2978.48" y1="6677.48" x2="3118.25" y2="6694.42" gradientUnits="userSpaceOnUse">
<stop stop-color="#2B237C"/>
<stop offset="1" stop-color="#180D5B"/>
</linearGradient>
<linearGradient id="paint31_linear_34_296" x1="2520.2" y1="6861" x2="2692.39" y2="6881.9" gradientUnits="userSpaceOnUse">
<stop stop-color="#2B237C"/>
<stop offset="1" stop-color="#180D5B"/>
</linearGradient>
<linearGradient id="paint32_linear_34_296" x1="1590.94" y1="5752.84" x2="1628.14" y2="6115.11" gradientUnits="userSpaceOnUse">
<stop stop-color="#2C247D"/>
<stop offset="0.02" stop-color="#40DDDA"/>
<stop offset="0.09" stop-color="#3AAEC0"/>
<stop offset="0.17" stop-color="#3484A9"/>
<stop offset="0.26" stop-color="#2F6195"/>
<stop offset="0.35" stop-color="#2B4486"/>
<stop offset="0.44" stop-color="#282E79"/>
<stop offset="0.54" stop-color="#261E71"/>
<stop offset="0.66" stop-color="#24156C"/>
<stop offset="0.82" stop-color="#24126A"/>
</linearGradient>
<linearGradient id="paint33_linear_34_296" x1="1942.09" y1="6073.86" x2="1977.51" y2="6447.65" gradientUnits="userSpaceOnUse">
<stop stop-color="#2B237C"/>
<stop offset="1" stop-color="#180D5B"/>
</linearGradient>
<linearGradient id="paint34_linear_34_296" x1="14272.3" y1="17465.3" x2="14464.4" y2="21579.7" gradientUnits="userSpaceOnUse">
<stop stop-color="#91A2FA"/>
<stop offset="0.0199" stop-color="#91A2FA"/>
<stop offset="0.02" stop-color="#654DB3"/>
<stop offset="0.09" stop-color="#654DB3"/>
<stop offset="0.17" stop-color="#654DB3"/>
<stop offset="0.26" stop-color="#654CB3"/>
<stop offset="0.35" stop-color="#35068C"/>
<stop offset="0.44" stop-color="#35068C"/>
<stop offset="0.54" stop-color="#35068C"/>
<stop offset="0.66" stop-color="#35068C"/>
<stop offset="0.82" stop-color="#35068C"/>
</linearGradient>
</defs>
</svg>
