<svg width="40" height="40" viewBox="0 0 40 40" fill="none" xmlns="http://www.w3.org/2000/svg">
<circle cx="20" cy="20" r="20" fill="#03031A"/>
<path d="M3.81372 30.235C6.24836 34.3138 10.0942 37.4526 14.6775 38.9784C15.6781 39.1614 16.0428 38.5438 16.0428 38.0134C16.0428 37.7938 16.0391 37.4058 16.0341 36.8866C16.0284 36.2852 16.021 35.5079 16.0158 34.6124C10.4527 35.8206 9.2789 31.931 9.2789 31.931C8.36911 29.6215 7.05783 29.0064 7.05783 29.0064C5.24194 27.7651 7.19535 27.7896 7.19535 27.7896C9.20277 27.9321 10.2587 29.8511 10.2587 29.8511C12.0426 32.9071 14.9402 32.0243 16.0796 31.5135C16.2613 30.2207 16.777 29.3391 17.3491 28.8394C12.9082 28.3348 8.23896 26.6183 8.23896 18.9545C8.23896 16.7715 9.01861 14.9863 10.298 13.5879C10.0917 13.082 9.40536 11.0488 10.4932 8.29488C10.4932 8.29488 12.1728 7.75711 15.9937 10.3453C17.5885 9.90205 19.3001 9.67982 21.0006 9.67246C22.6986 9.67982 24.4101 9.90205 26.0075 10.3453C29.8259 7.75711 31.5018 8.29488 31.5018 8.29488C32.5933 11.0488 31.907 13.082 31.7007 13.5879C32.9825 14.9863 33.7572 16.7715 33.7572 18.9545C33.7572 26.638 29.0806 28.3286 24.625 28.8234C25.3432 29.441 25.9829 30.6614 25.9829 32.5277C25.9829 34.3152 25.9719 35.8722 25.9646 36.9035C25.961 37.4143 25.9583 37.7962 25.9583 38.0134C25.9583 38.5487 26.3181 39.1712 27.3335 38.976C30.9846 37.7572 34.1673 35.5154 36.5405 32.5903C32.8736 37.1108 27.2742 40 20.9999 40C13.6946 40 7.30402 36.0832 3.81372 30.235Z" fill="white"/>
</svg>
