<svg width="580" height="440" viewBox="0 0 580 440" fill="none" xmlns="http://www.w3.org/2000/svg">
<rect width="580" height="298" rx="16" fill="#35068C"/>
<path d="M498.629 64.2898H499.967V61.5952H502.661V60.2578H499.967V57.5682H498.629V60.2578H495.94V61.5952H498.629V64.2898ZM508.944 55.8182H507.447L504.907 57.4787V58.9503L507.343 57.3594H507.403V66H508.944V55.8182ZM511.838 66H518.54V64.6825H513.956V64.608L515.979 62.4901C517.844 60.6058 518.376 59.706 518.376 58.5675C518.376 56.9318 517.043 55.679 515.124 55.679C513.22 55.679 511.828 56.9119 511.828 58.7713H513.295C513.29 57.6776 513.996 56.9616 515.094 56.9616C516.129 56.9616 516.914 57.598 516.914 58.6122C516.914 59.5121 516.377 60.1584 515.283 61.3168L511.838 64.8864V66ZM523.925 66.1392C525.973 66.1392 527.435 64.6925 527.43 62.7088C527.435 60.7401 526.063 59.3082 524.208 59.3082C523.453 59.3082 522.752 59.5966 522.354 59.9844H522.294L522.617 57.1357H526.938V55.8182H521.34L520.768 60.9489L522.175 61.1577C522.558 60.8146 523.244 60.581 523.86 60.581C525.068 60.5909 525.943 61.4957 525.943 62.7386C525.943 63.9616 525.093 64.8466 523.925 64.8466C522.94 64.8466 522.16 64.2202 522.08 63.3452H520.589C520.649 64.9659 522.055 66.1392 523.925 66.1392ZM534.7 64.0909C534.705 65.2393 535.426 66.2088 536.773 66.2088C538.106 66.2088 538.837 65.2393 538.837 64.0909V63.554C538.837 62.4006 538.126 61.4361 536.773 61.4361C535.446 61.4361 534.705 62.4055 534.7 63.554V64.0909ZM529.58 58.2642C529.58 59.4126 530.305 60.3821 531.653 60.3821C532.98 60.3821 533.716 59.4176 533.711 58.2642V57.7273C533.716 56.5739 533 55.6094 531.653 55.6094C530.33 55.6094 529.58 56.5739 529.58 57.7273V58.2642ZM529.997 66H531.185L538.185 55.8182H536.997L529.997 66ZM535.859 63.554C535.864 62.9822 536.112 62.4304 536.773 62.4304C537.46 62.4304 537.673 62.9822 537.673 63.554V64.0909C537.673 64.6626 537.44 65.2145 536.773 65.2145C536.097 65.2145 535.864 64.6577 535.859 64.0909V63.554ZM530.743 57.7273C530.743 57.1605 530.991 56.6037 531.653 56.6037C532.339 56.6037 532.553 57.1555 532.553 57.7273V58.2642C532.553 58.8359 532.319 59.3878 531.653 59.3878C530.977 59.3878 530.743 58.8359 530.743 58.2642V57.7273Z" fill="#42FFFF"/>
<path d="M100.375 87.1392C102.622 87.1392 103.915 85.2351 103.915 81.9091C103.915 78.608 102.602 76.679 100.375 76.679C98.1477 76.679 96.8352 78.608 96.8352 81.9091C96.8352 85.2351 98.1278 87.1392 100.375 87.1392ZM100.375 86.0455C98.8935 86.0455 98.0284 84.5589 98.0284 81.9091C98.0284 79.2642 98.9034 77.7528 100.375 77.7528C101.847 77.7528 102.722 79.2642 102.722 81.9091C102.722 84.5589 101.857 86.0455 100.375 86.0455ZM106.464 87.0795C106.956 87.0795 107.358 86.6768 107.358 86.1847C107.358 85.6925 106.956 85.2898 106.464 85.2898C105.971 85.2898 105.569 85.6925 105.569 86.1847C105.569 86.6768 105.971 87.0795 106.464 87.0795ZM112.55 87.1392C114.797 87.1392 116.089 85.2351 116.089 81.9091C116.089 78.608 114.777 76.679 112.55 76.679C110.322 76.679 109.01 78.608 109.01 81.9091C109.01 85.2351 110.302 87.1392 112.55 87.1392ZM112.55 86.0455C111.068 86.0455 110.203 84.5589 110.203 81.9091C110.203 79.2642 111.078 77.7528 112.55 77.7528C114.021 77.7528 114.896 79.2642 114.896 81.9091C114.896 84.5589 114.031 86.0455 112.55 86.0455ZM121.44 87.1392C123.687 87.1392 124.979 85.2351 124.979 81.9091C124.979 78.608 123.667 76.679 121.44 76.679C119.212 76.679 117.9 78.608 117.9 81.9091C117.9 85.2351 119.192 87.1392 121.44 87.1392ZM121.44 86.0455C119.958 86.0455 119.093 84.5589 119.093 81.9091C119.093 79.2642 119.968 77.7528 121.44 77.7528C122.911 77.7528 123.786 79.2642 123.786 81.9091C123.786 84.5589 122.921 86.0455 121.44 86.0455ZM130.33 87.1392C132.577 87.1392 133.869 85.2351 133.869 81.9091C133.869 78.608 132.557 76.679 130.33 76.679C128.102 76.679 126.79 78.608 126.79 81.9091C126.79 85.2351 128.082 87.1392 130.33 87.1392ZM130.33 86.0455C128.848 86.0455 127.983 84.5589 127.983 81.9091C127.983 79.2642 128.858 77.7528 130.33 77.7528C131.801 77.7528 132.676 79.2642 132.676 81.9091C132.676 84.5589 131.811 86.0455 130.33 86.0455ZM139.16 87.1392C141.193 87.1392 142.61 85.951 142.62 84.2955C142.61 83.0078 141.75 81.9141 140.651 81.7102V81.6506C141.606 81.402 142.232 80.4673 142.242 79.3835C142.232 77.8324 140.93 76.679 139.16 76.679C137.37 76.679 136.068 77.8324 136.077 79.3835C136.068 80.4673 136.694 81.402 137.668 81.6506V81.7102C136.55 81.9141 135.69 83.0078 135.7 84.2955C135.69 85.951 137.107 87.1392 139.16 87.1392ZM139.16 86.0455C137.763 86.0455 136.903 85.3295 136.913 84.2358C136.903 83.0874 137.852 82.267 139.16 82.267C140.448 82.267 141.397 83.0874 141.407 84.2358C141.397 85.3295 140.537 86.0455 139.16 86.0455ZM139.16 81.2131C138.046 81.2131 137.261 80.517 137.271 79.4631C137.261 78.429 138.016 77.7528 139.16 77.7528C140.283 77.7528 141.039 78.429 141.049 79.4631C141.039 80.517 140.254 81.2131 139.16 81.2131ZM147.986 87.1392C150.234 87.1392 151.526 85.2351 151.526 81.9091C151.526 78.608 150.214 76.679 147.986 76.679C145.759 76.679 144.447 78.608 144.447 81.9091C144.447 85.2351 145.739 87.1392 147.986 87.1392ZM147.986 86.0455C146.505 86.0455 145.64 84.5589 145.64 81.9091C145.64 79.2642 146.515 77.7528 147.986 77.7528C149.458 77.7528 150.333 79.2642 150.333 81.9091C150.333 84.5589 149.468 86.0455 147.986 86.0455ZM157.812 87H161.491C163.897 87 164.891 85.8267 164.891 84.2955C164.891 82.6847 163.778 81.8097 162.843 81.75V81.6506C163.718 81.4119 164.494 80.8352 164.494 79.5227C164.494 78.0312 163.499 76.8182 161.372 76.8182H157.812V87ZM159.045 85.9062V82.3665H161.551C162.883 82.3665 163.718 83.2614 163.718 84.2955C163.718 85.1903 163.102 85.9062 161.491 85.9062H159.045ZM159.045 81.2926V77.9119H161.372C162.724 77.9119 163.32 78.6278 163.32 79.5227C163.32 80.5966 162.445 81.2926 161.332 81.2926H159.045ZM166.501 77.9119H169.702V87H170.935V77.9119H174.137V76.8182H166.501V77.9119ZM183.949 80C183.571 77.9119 181.901 76.679 179.853 76.679C177.247 76.679 175.358 78.6875 175.358 81.9091C175.358 85.1307 177.247 87.1392 179.853 87.1392C181.901 87.1392 183.571 85.9062 183.949 83.8182H182.716C182.418 85.2301 181.205 85.9858 179.853 85.9858C178.003 85.9858 176.551 84.554 176.551 81.9091C176.551 79.2642 178.003 77.8324 179.853 77.8324C181.205 77.8324 182.418 78.5881 182.716 80H183.949Z" fill="#F2F2F2"/>
<path d="M97.517 63H104.974C108.895 63 110.983 60.9545 110.983 58.1761C110.983 55.5938 109.134 54.0341 107.148 53.9403V53.7699C108.963 53.3608 110.301 52.0739 110.301 50.0199C110.301 47.4034 108.358 45.5455 104.506 45.5455H97.517V63ZM101.207 59.983V55.3466H104.301C106.074 55.3466 107.173 56.3693 107.173 57.8097C107.173 59.1222 106.278 59.983 104.216 59.983H101.207ZM101.207 52.8494V48.5284H104.011C105.648 48.5284 106.577 49.3722 106.577 50.6335C106.577 52.0142 105.452 52.8494 103.943 52.8494H101.207ZM113.316 63H116.947V49.9091H113.316V63ZM115.14 48.2216C116.222 48.2216 117.109 47.3949 117.109 46.3807C117.109 45.375 116.222 44.5483 115.14 44.5483C114.066 44.5483 113.18 45.375 113.18 46.3807C113.18 47.3949 114.066 48.2216 115.14 48.2216ZM126.818 49.9091H124.355V46.7727H120.724V49.9091H118.935V52.6364H120.724V59.4545C120.707 62.0199 122.455 63.2898 125.088 63.179C126.026 63.1449 126.69 62.9574 127.057 62.8381L126.486 60.1364C126.307 60.1705 125.923 60.2557 125.582 60.2557C124.858 60.2557 124.355 59.983 124.355 58.9773V52.6364H126.818V49.9091ZM134.957 63.2557C138.443 63.2557 140.634 61.2102 140.804 58.2017H137.378C137.165 59.5994 136.244 60.3835 135 60.3835C133.304 60.3835 132.205 58.9602 132.205 56.4545C132.205 53.983 133.312 52.5682 135 52.5682C136.33 52.5682 137.182 53.446 137.378 54.75H140.804C140.651 51.7244 138.358 49.7386 134.94 49.7386C130.969 49.7386 128.514 52.4915 128.514 56.5057C128.514 60.4858 130.926 63.2557 134.957 63.2557ZM149.043 63.2557C153.015 63.2557 155.487 60.5369 155.487 56.5057C155.487 52.4489 153.015 49.7386 149.043 49.7386C145.072 49.7386 142.6 52.4489 142.6 56.5057C142.6 60.5369 145.072 63.2557 149.043 63.2557ZM149.06 60.4432C147.228 60.4432 146.29 58.7642 146.29 56.4801C146.29 54.196 147.228 52.5085 149.06 52.5085C150.859 52.5085 151.796 54.196 151.796 56.4801C151.796 58.7642 150.859 60.4432 149.06 60.4432ZM157.847 63H161.478V49.9091H157.847V63ZM159.671 48.2216C160.754 48.2216 161.64 47.3949 161.64 46.3807C161.64 45.375 160.754 44.5483 159.671 44.5483C158.597 44.5483 157.711 45.375 157.711 46.3807C157.711 47.3949 158.597 48.2216 159.671 48.2216ZM168.017 55.4318C168.026 53.7443 169.031 52.7557 170.497 52.7557C171.955 52.7557 172.832 53.7102 172.824 55.3125V63H176.455V54.6648C176.455 51.6136 174.665 49.7386 171.938 49.7386C169.994 49.7386 168.588 50.6932 168 52.2188H167.847V49.9091H164.386V63H168.017V55.4318Z" fill="white"/>
<path opacity="0.7" d="M187.148 60H191.858C194.523 60 195.83 58.642 195.83 56.8295C195.83 55.0682 194.58 54.0341 193.341 53.9716V53.858C194.477 53.5909 195.375 52.7955 195.375 51.3807C195.375 49.6477 194.125 48.3636 191.602 48.3636H187.148V60ZM189.256 58.2386V54.8295H191.58C192.881 54.8295 193.688 55.625 193.688 56.6648C193.688 57.5909 193.051 58.2386 191.523 58.2386H189.256ZM189.256 53.3125V50.1023H191.386C192.625 50.1023 193.267 50.7557 193.267 51.6534C193.267 52.6761 192.438 53.3125 191.341 53.3125H189.256ZM197.152 50.1307H200.749V60H202.839V50.1307H206.436V48.3636H197.152V50.1307ZM217.686 52.2898C217.328 49.7045 215.339 48.2045 212.76 48.2045C209.72 48.2045 207.43 50.4205 207.43 54.1818C207.43 57.9375 209.692 60.1591 212.76 60.1591C215.527 60.1591 217.362 58.3693 217.686 56.1477L215.561 56.1364C215.294 57.5 214.18 58.267 212.788 58.267C210.902 58.267 209.55 56.8523 209.55 54.1818C209.55 51.5568 210.891 50.0966 212.794 50.0966C214.209 50.0966 215.317 50.8977 215.561 52.2898H217.686Z" fill="#CFCFCF"/>
<path d="M79.4017 152C76.7295 163.418 65.8684 170.359 55.1637 167.513C44.4434 164.667 37.9269 153.099 40.5992 141.697C43.2714 130.28 54.1167 123.339 64.837 126.185C75.5417 129.015 82.0741 140.582 79.4017 152Z" fill="url(#paint0_linear_34_71)"/>
<path d="M69.5224 144.195C69.9131 141.366 67.8974 139.835 65.1162 138.819L66.0224 134.975L63.8349 134.393L62.96 138.137C62.3818 137.987 61.7881 137.838 61.1943 137.704L62.0693 133.943L59.8818 133.361L58.9912 137.189C58.5068 137.072 58.0381 136.956 57.585 136.839V136.822L54.5537 136.024L53.9756 138.52C53.9756 138.52 55.6006 138.919 55.5693 138.936C56.46 139.169 56.6162 139.801 56.585 140.301L55.5537 144.678C55.6162 144.694 55.6943 144.711 55.7881 144.761C55.71 144.744 55.6318 144.727 55.5537 144.694L54.1162 150.818C54.0068 151.101 53.7256 151.534 53.1162 151.368C53.1318 151.401 51.5225 150.952 51.5225 150.952L50.4287 153.631L53.2881 154.397C53.8193 154.546 54.335 154.679 54.8506 154.829L53.9443 158.707L56.1318 159.289L57.0381 155.445C57.6318 155.611 58.2256 155.778 58.7881 155.928L57.8975 159.755L60.085 160.338L60.9912 156.46C64.7412 157.209 67.5537 156.909 68.7256 153.298C69.6787 150.402 68.6787 148.722 66.7099 147.623C68.1631 147.274 69.2412 146.259 69.5224 144.195V144.195ZM64.5068 151.684C63.835 154.58 59.2412 153.015 57.7568 152.616L58.96 147.473C60.4443 147.873 65.2256 148.655 64.5068 151.684ZM65.1943 144.145C64.5693 146.791 60.7568 145.443 59.5225 145.11L60.6162 140.45C61.8506 140.783 65.8349 141.399 65.1943 144.145Z" fill="white"/>
<g filter="url(#filter0_b_34_71)">
<rect x="40" y="256" width="180.886" height="184" rx="16" fill="#491F98"/>
</g>
<path d="M83.7019 282.455H81.067V297H83.7019V282.455ZM89.2127 290.608C89.2127 289.031 90.1644 288.122 91.5209 288.122C92.849 288.122 93.6445 288.996 93.6445 290.452V297H96.2155V290.054C96.2226 287.44 94.7311 285.949 92.4797 285.949C90.8462 285.949 89.724 286.73 89.2269 287.945H89.099V286.091H86.6416V297H89.2127V290.608ZM103.788 297.213C106.529 297.213 108.276 295.587 108.461 293.271H106.004C105.783 294.443 104.938 295.118 103.809 295.118C102.204 295.118 101.167 293.776 101.167 291.545C101.167 289.344 102.225 288.023 103.809 288.023C105.045 288.023 105.805 288.818 106.004 289.869H108.461C108.283 287.504 106.437 285.949 103.773 285.949C100.577 285.949 98.5604 288.257 98.5604 291.588C98.5604 294.891 100.528 297.213 103.788 297.213ZM110.772 297H113.343V290.587C113.343 289.202 114.387 288.222 115.801 288.222C116.234 288.222 116.774 288.3 116.994 288.371V286.006C116.759 285.963 116.354 285.935 116.07 285.935C114.82 285.935 113.776 286.645 113.379 287.909H113.265V286.091H110.772V297ZM123.282 297.213C125.825 297.213 127.572 295.97 128.026 294.074L125.626 293.804C125.278 294.727 124.426 295.21 123.318 295.21C121.656 295.21 120.555 294.116 120.534 292.249H128.133V291.46C128.133 287.632 125.832 285.949 123.147 285.949C120.022 285.949 117.984 288.243 117.984 291.609C117.984 295.033 119.994 297.213 123.282 297.213ZM120.541 290.516C120.619 289.124 121.649 287.952 123.183 287.952C124.66 287.952 125.654 289.031 125.668 290.516H120.541ZM133.647 297.22C135.359 297.22 136.382 296.418 136.85 295.501H136.936V297H139.407V289.699C139.407 286.815 137.056 285.949 134.975 285.949C132.681 285.949 130.92 286.972 130.352 288.96L132.752 289.301C133.008 288.555 133.732 287.916 134.99 287.916C136.183 287.916 136.836 288.527 136.836 289.599V289.642C136.836 290.381 136.062 290.416 134.137 290.622C132.021 290.849 129.997 291.482 129.997 293.939C129.997 296.084 131.566 297.22 133.647 297.22ZM134.315 295.331C133.242 295.331 132.475 294.841 132.475 293.896C132.475 292.909 133.335 292.497 134.485 292.334C135.16 292.241 136.509 292.071 136.843 291.801V293.087C136.843 294.301 135.863 295.331 134.315 295.331ZM150.815 288.974C150.459 287.128 148.982 285.949 146.425 285.949C143.798 285.949 142.008 287.241 142.015 289.259C142.008 290.849 142.988 291.901 145.083 292.334L146.944 292.724C147.945 292.945 148.414 293.349 148.414 293.967C148.414 294.713 147.604 295.274 146.383 295.274C145.204 295.274 144.437 294.763 144.217 293.783L141.709 294.024C142.029 296.027 143.712 297.213 146.39 297.213C149.117 297.213 151.042 295.8 151.049 293.733C151.042 292.178 150.04 291.226 147.981 290.778L146.12 290.381C145.012 290.132 144.572 289.749 144.579 289.116C144.572 288.378 145.388 287.866 146.461 287.866C147.647 287.866 148.272 288.513 148.471 289.23L150.815 288.974ZM158.199 297.213C160.741 297.213 162.488 295.97 162.943 294.074L160.542 293.804C160.194 294.727 159.342 295.21 158.234 295.21C156.572 295.21 155.471 294.116 155.45 292.249H163.049V291.46C163.049 287.632 160.748 285.949 158.064 285.949C154.939 285.949 152.9 288.243 152.9 291.609C152.9 295.033 154.91 297.213 158.199 297.213ZM155.457 290.516C155.535 289.124 156.565 287.952 158.099 287.952C159.576 287.952 160.571 289.031 160.585 290.516H155.457ZM170.585 297H173.156V286.091H170.585V297ZM171.878 284.543C172.695 284.543 173.362 283.918 173.362 283.151C173.362 282.376 172.695 281.751 171.878 281.751C171.054 281.751 170.387 282.376 170.387 283.151C170.387 283.918 171.054 284.543 171.878 284.543ZM178.571 290.608C178.571 289.031 179.523 288.122 180.879 288.122C182.208 288.122 183.003 288.996 183.003 290.452V297H185.574V290.054C185.581 287.44 184.09 285.949 181.838 285.949C180.205 285.949 179.083 286.73 178.585 287.945H178.458V286.091H176V297H178.571V290.608ZM80.4278 312.663H84.9235V325H87.5372V312.663H92.0329V310.455H80.4278V312.663ZM93.2237 325H95.7947V318.587C95.7947 317.202 96.8387 316.222 98.2521 316.222C98.6853 316.222 99.2251 316.3 99.4453 316.371V314.006C99.2109 313.963 98.806 313.935 98.522 313.935C97.272 313.935 96.2279 314.645 95.8302 315.909H95.7166V314.091H93.2237V325ZM104.278 325.22C105.989 325.22 107.012 324.418 107.481 323.501H107.566V325H110.038V317.699C110.038 314.815 107.687 313.949 105.606 313.949C103.312 313.949 101.55 314.972 100.982 316.96L103.383 317.301C103.639 316.555 104.363 315.916 105.62 315.916C106.813 315.916 107.467 316.527 107.467 317.599V317.642C107.467 318.381 106.692 318.416 104.768 318.622C102.651 318.849 100.627 319.482 100.627 321.939C100.627 324.084 102.197 325.22 104.278 325.22ZM104.945 323.331C103.873 323.331 103.106 322.841 103.106 321.896C103.106 320.909 103.965 320.497 105.116 320.334C105.79 320.241 107.14 320.071 107.474 319.801V321.087C107.474 322.301 106.494 323.331 104.945 323.331ZM116.871 325.192C118.746 325.192 119.591 324.077 119.996 323.281H120.152V325H122.681V310.455H120.103V315.895H119.996C119.606 315.107 118.803 313.949 116.878 313.949C114.357 313.949 112.375 315.923 112.375 319.56C112.375 323.153 114.3 325.192 116.871 325.192ZM117.589 323.082C115.891 323.082 114.996 321.591 114.996 319.545C114.996 317.514 115.877 316.058 117.589 316.058C119.243 316.058 120.152 317.429 120.152 319.545C120.152 321.662 119.229 323.082 117.589 323.082ZM130.45 325.213C132.993 325.213 134.74 323.97 135.194 322.074L132.794 321.804C132.446 322.727 131.594 323.21 130.486 323.21C128.824 323.21 127.723 322.116 127.701 320.249H135.301V319.46C135.301 315.632 133 313.949 130.315 313.949C127.19 313.949 125.152 316.243 125.152 319.609C125.152 323.033 127.162 325.213 130.45 325.213ZM127.709 318.516C127.787 317.124 128.817 315.952 130.351 315.952C131.828 315.952 132.822 317.031 132.836 318.516H127.709Z" fill="white"/>
<path d="M87.4051 399.273H88.7687C88.7062 397.517 87.0869 396.205 84.8369 396.205C82.6096 396.205 80.8596 397.5 80.8596 399.455C80.8596 401.023 81.996 401.955 83.8141 402.477L85.246 402.886C86.4732 403.227 87.5641 403.659 87.5641 404.818C87.5641 406.091 86.3369 406.932 84.7232 406.932C83.3369 406.932 82.1096 406.318 81.996 405H80.5414C80.6778 406.909 82.2232 408.205 84.7232 408.205C87.4051 408.205 88.9278 406.727 88.9278 404.841C88.9278 402.659 86.8596 401.955 85.6551 401.636L84.4732 401.318C83.6096 401.091 82.2232 400.636 82.2232 399.386C82.2232 398.273 83.246 397.455 84.7914 397.455C86.2005 397.455 87.2687 398.125 87.4051 399.273ZM94.8818 408.182C96.6545 408.182 97.95 407.295 98.3591 405.977L97.0636 405.614C96.7227 406.523 95.9329 406.977 94.8818 406.977C93.3079 406.977 92.2227 405.96 92.1602 404.091H98.4954V403.523C98.4954 400.273 96.5636 399.159 94.7454 399.159C92.3818 399.159 90.8136 401.023 90.8136 403.705C90.8136 406.386 92.3591 408.182 94.8818 408.182ZM92.1602 402.932C92.2511 401.574 93.2114 400.364 94.7454 400.364C96.2 400.364 97.1318 401.455 97.1318 402.932H92.1602ZM102.036 396.364H100.695V408H102.036V396.364ZM105.993 396.364H104.652V408H105.993V396.364ZM116.814 408.182C119.178 408.182 120.769 406.386 120.769 403.682C120.769 400.955 119.178 399.159 116.814 399.159C114.451 399.159 112.86 400.955 112.86 403.682C112.86 406.386 114.451 408.182 116.814 408.182ZM116.814 406.977C115.019 406.977 114.201 405.432 114.201 403.682C114.201 401.932 115.019 400.364 116.814 400.364C118.61 400.364 119.428 401.932 119.428 403.682C119.428 405.432 118.61 406.977 116.814 406.977ZM122.976 411.273H124.317V406.659H124.43C124.726 407.136 125.294 408.182 126.976 408.182C129.158 408.182 130.68 406.432 130.68 403.659C130.68 400.909 129.158 399.159 126.953 399.159C125.249 399.159 124.726 400.205 124.43 400.659H124.271V399.273H122.976V411.273ZM124.294 403.636C124.294 401.682 125.158 400.364 126.794 400.364C128.499 400.364 129.339 401.795 129.339 403.636C129.339 405.5 128.476 406.977 126.794 406.977C125.18 406.977 124.294 405.614 124.294 403.636ZM136.681 399.273H134.818V397.182H133.477V399.273H132.159V400.409H133.477V405.864C133.477 407.386 134.704 408.114 135.84 408.114C136.34 408.114 136.659 408.023 136.84 407.955L136.568 406.75C136.454 406.773 136.272 406.818 135.977 406.818C135.386 406.818 134.818 406.636 134.818 405.5V400.409H136.681V399.273ZM138.858 408H140.199V399.273H138.858V408ZM139.54 397.818C140.063 397.818 140.495 397.409 140.495 396.909C140.495 396.409 140.063 396 139.54 396C139.017 396 138.586 396.409 138.586 396.909C138.586 397.409 139.017 397.818 139.54 397.818ZM146.361 408.182C148.724 408.182 150.315 406.386 150.315 403.682C150.315 400.955 148.724 399.159 146.361 399.159C143.997 399.159 142.406 400.955 142.406 403.682C142.406 406.386 143.997 408.182 146.361 408.182ZM146.361 406.977C144.565 406.977 143.747 405.432 143.747 403.682C143.747 401.932 144.565 400.364 146.361 400.364C148.156 400.364 148.974 401.932 148.974 403.682C148.974 405.432 148.156 406.977 146.361 406.977ZM153.863 402.75C153.863 401.227 154.806 400.364 156.09 400.364C157.335 400.364 158.09 401.176 158.09 402.545V408H159.431V402.455C159.431 400.227 158.244 399.159 156.477 399.159C155.158 399.159 154.34 399.75 153.931 400.636H153.818V399.273H152.522V408H153.863V402.75Z" fill="#F2F2F2"/>
<path d="M86.263 368.341H89.3141V363.832H93.8227V360.781H89.3141V356.273H86.263V360.781H81.7545V363.832H86.263V368.341ZM97.5868 371H101.396L108.641 356.605V353.545H96.3936V356.562H104.823V356.682L97.5868 371ZM117.551 371.239C121.437 371.239 124.079 368.707 124.07 365.179C124.079 361.838 121.744 359.435 118.599 359.435C117.065 359.435 115.744 360.074 115.13 360.935H115.028L115.48 356.562H123.107V353.545H112.437L111.61 362.75L114.891 363.338C115.428 362.614 116.468 362.162 117.499 362.162C119.255 362.17 120.516 363.44 120.516 365.273C120.516 367.088 119.281 368.341 117.551 368.341C116.085 368.341 114.9 367.42 114.815 366.065H111.235C111.303 369.082 113.937 371.239 117.551 371.239ZM136.438 367.727C136.447 369.824 137.785 371.605 140.282 371.605C142.754 371.605 144.134 369.824 144.126 367.727V366.807C144.134 364.693 142.788 362.929 140.282 362.929C137.819 362.929 136.447 364.71 136.438 366.807V367.727ZM127.481 357.739C127.489 359.835 128.827 361.599 131.316 361.599C133.796 361.599 135.177 359.852 135.168 357.739V356.818C135.177 354.705 133.83 352.94 131.316 352.94C128.879 352.94 127.489 354.705 127.481 356.818V357.739ZM128.316 371H130.541L142.541 353.545H140.316L128.316 371ZM138.918 366.807C138.927 365.972 139.259 365.111 140.282 365.111C141.356 365.111 141.637 365.972 141.629 366.807V367.727C141.637 368.562 141.322 369.406 140.282 369.406C139.242 369.406 138.927 368.537 138.918 367.727V366.807ZM129.978 356.818C129.987 356.009 130.302 355.122 131.316 355.122C132.39 355.122 132.68 355.983 132.671 356.818V357.739C132.68 358.574 132.356 359.418 131.316 359.418C130.31 359.418 129.987 358.574 129.978 357.739V356.818Z" fill="white"/>
<path d="M174.714 361.629L169.714 356.304C169.619 356.207 169.507 356.131 169.384 356.08C169.141 355.973 168.868 355.973 168.624 356.08C168.501 356.131 168.389 356.207 168.294 356.304L163.294 361.629C163.201 361.728 163.127 361.846 163.076 361.976C163.026 362.106 163 362.245 163 362.385C163 362.669 163.106 362.941 163.294 363.142C163.482 363.342 163.738 363.455 164.004 363.455C164.27 363.455 164.526 363.342 164.714 363.142L168.004 359.627V367.711C168.004 367.993 168.109 368.264 168.297 368.464C168.485 368.664 168.739 368.776 169.004 368.776C169.269 368.776 169.524 368.664 169.711 368.464C169.899 368.264 170.004 367.993 170.004 367.711V359.627L173.294 363.142C173.387 363.241 173.498 363.321 173.62 363.375C173.741 363.429 173.872 363.457 174.004 363.457C174.136 363.457 174.267 363.429 174.389 363.375C174.511 363.321 174.621 363.241 174.714 363.142C174.808 363.043 174.882 362.925 174.933 362.795C174.984 362.665 175.01 362.526 175.01 362.385C175.01 362.245 174.984 362.106 174.933 361.976C174.882 361.846 174.808 361.728 174.714 361.629Z" fill="#FD8589"/>
<rect x="355" y="255" width="169" height="84" rx="16" fill="#491F98"/>
<path d="M405.322 296.182H407.334L407.351 294.213C411.041 293.932 413.18 291.972 413.189 289.014C413.18 286.108 410.99 284.565 407.956 283.884L407.453 283.764L407.487 279.503C408.621 279.767 409.311 280.491 409.413 281.565H412.95C412.907 278.744 410.802 276.724 407.521 276.366L407.538 274.364H405.527L405.51 276.349C402.177 276.673 399.825 278.685 399.842 281.591C399.834 284.165 401.649 285.639 404.598 286.347L405.416 286.551L405.373 291.06C403.984 290.795 403.047 289.943 402.953 288.52H399.382C399.467 291.963 401.726 293.889 405.339 294.205L405.322 296.182ZM407.385 291.06L407.419 287.08C408.74 287.497 409.456 288.034 409.464 289.006C409.456 290.037 408.672 290.804 407.385 291.06ZM405.442 283.244C404.376 282.878 403.609 282.324 403.626 281.344C403.626 280.432 404.274 279.724 405.476 279.477L405.442 283.244ZM423.402 276.545H419.934L415.613 279.281V282.554L419.61 280.048H419.712V294H423.402V276.545ZM434.166 294.239C438.052 294.239 440.694 291.707 440.686 288.179C440.694 284.838 438.359 282.435 435.214 282.435C433.68 282.435 432.359 283.074 431.745 283.935H431.643L432.095 279.562H439.723V276.545H429.052L428.226 285.75L431.507 286.338C432.044 285.614 433.083 285.162 434.115 285.162C435.87 285.17 437.132 286.44 437.132 288.273C437.132 290.088 435.896 291.341 434.166 291.341C432.7 291.341 431.515 290.42 431.43 289.065H427.851C427.919 292.082 430.552 294.239 434.166 294.239ZM445.117 294.222C446.208 294.222 447.154 293.31 447.162 292.176C447.154 291.06 446.208 290.148 445.117 290.148C443.992 290.148 443.063 291.06 443.071 292.176C443.063 293.31 443.992 294.222 445.117 294.222ZM456.262 294.239C460.182 294.239 462.986 292.082 462.978 289.099C462.986 286.926 461.605 285.375 459.04 285.051V284.915C460.992 284.565 462.338 283.185 462.33 281.224C462.338 278.472 459.926 276.307 456.313 276.307C452.733 276.307 450.04 278.403 449.989 281.42H453.526C453.568 280.091 454.787 279.23 456.296 279.23C457.787 279.23 458.784 280.134 458.776 281.446C458.784 282.818 457.617 283.747 455.938 283.747H454.31V286.457H455.938C457.915 286.457 459.151 287.446 459.142 288.852C459.151 290.241 457.958 291.196 456.27 291.196C454.642 291.196 453.424 290.344 453.355 289.065H449.639C449.699 292.116 452.426 294.239 456.262 294.239ZM465.87 294H478.313V290.983H470.984V290.864L473.532 288.366C477.12 285.094 478.083 283.457 478.083 281.472C478.083 278.446 475.612 276.307 471.87 276.307C468.205 276.307 465.691 278.497 465.7 281.923H469.203C469.194 280.253 470.251 279.23 471.845 279.23C473.379 279.23 474.521 280.185 474.521 281.719C474.521 283.108 473.669 284.062 472.083 285.588L465.87 291.341V294Z" fill="white"/>
<path d="M388.609 319H390.018V314.75H392.564C395.274 314.75 396.496 313.102 396.496 311.045C396.496 308.989 395.274 307.364 392.541 307.364H388.609V319ZM390.018 313.5V308.614H392.496C394.388 308.614 395.109 309.648 395.109 311.045C395.109 312.443 394.388 313.5 392.518 313.5H390.018ZM398.744 319H400.085V313.477C400.085 312.295 401.017 311.432 402.289 311.432C402.647 311.432 403.017 311.5 403.107 311.523V310.159C402.954 310.148 402.602 310.136 402.403 310.136C401.357 310.136 400.448 310.727 400.13 311.591H400.039V310.273H398.744V319ZM404.857 319H406.198V310.273H404.857V319ZM405.539 308.818C406.062 308.818 406.493 308.409 406.493 307.909C406.493 307.409 406.062 307 405.539 307C405.016 307 404.584 307.409 404.584 307.909C404.584 308.409 405.016 308.818 405.539 308.818ZM412.359 319.182C414.291 319.182 415.564 318 415.791 316.455H414.45C414.2 317.409 413.405 317.977 412.359 317.977C410.768 317.977 409.746 316.659 409.746 314.636C409.746 312.659 410.791 311.364 412.359 311.364C413.541 311.364 414.246 312.091 414.45 312.886H415.791C415.564 311.25 414.177 310.159 412.337 310.159C409.973 310.159 408.405 312.023 408.405 314.682C408.405 317.295 409.905 319.182 412.359 319.182ZM421.57 319.182C423.343 319.182 424.639 318.295 425.048 316.977L423.752 316.614C423.411 317.523 422.622 317.977 421.57 317.977C419.997 317.977 418.911 316.96 418.849 315.091H425.184V314.523C425.184 311.273 423.252 310.159 421.434 310.159C419.07 310.159 417.502 312.023 417.502 314.705C417.502 317.386 419.048 319.182 421.57 319.182ZM418.849 313.932C418.94 312.574 419.9 311.364 421.434 311.364C422.889 311.364 423.82 312.455 423.82 313.932H418.849ZM432.044 319H433.385V310.273H432.044V319ZM432.726 308.818C433.248 308.818 433.68 308.409 433.68 307.909C433.68 307.409 433.248 307 432.726 307C432.203 307 431.771 307.409 431.771 307.909C431.771 308.409 432.203 308.818 432.726 308.818ZM437.342 313.75C437.342 312.227 438.285 311.364 439.569 311.364C440.813 311.364 441.569 312.176 441.569 313.545V319H442.91V313.455C442.91 311.227 441.722 310.159 439.955 310.159C438.637 310.159 437.819 310.75 437.41 311.636H437.296V310.273H436.001V319H437.342V313.75ZM453.476 319.182C455.157 319.182 455.726 318.136 456.021 317.659H456.18V319H457.476V307.364H456.135V311.659H456.021C455.726 311.205 455.203 310.159 453.498 310.159C451.294 310.159 449.771 311.909 449.771 314.659C449.771 317.432 451.294 319.182 453.476 319.182ZM453.657 317.977C451.976 317.977 451.112 316.5 451.112 314.636C451.112 312.795 451.953 311.364 453.657 311.364C455.294 311.364 456.157 312.682 456.157 314.636C456.157 316.614 455.271 317.977 453.657 317.977ZM463.823 319.182C466.187 319.182 467.778 317.386 467.778 314.682C467.778 311.955 466.187 310.159 463.823 310.159C461.459 310.159 459.868 311.955 459.868 314.682C459.868 317.386 461.459 319.182 463.823 319.182ZM463.823 317.977C462.028 317.977 461.209 316.432 461.209 314.682C461.209 312.932 462.028 311.364 463.823 311.364C465.618 311.364 466.437 312.932 466.437 314.682C466.437 316.432 465.618 317.977 463.823 317.977ZM471.325 307.364H469.984V319H471.325V307.364ZM475.282 307.364H473.941V319H475.282V307.364ZM480.466 319.205C481.989 319.205 482.785 318.386 483.057 317.818H483.125V319H484.466V313.25C484.466 310.477 482.353 310.159 481.239 310.159C479.921 310.159 478.421 310.614 477.739 312.205L479.012 312.659C479.307 312.023 480.006 311.341 481.285 311.341C482.518 311.341 483.125 311.994 483.125 313.114V313.159C483.125 313.807 482.466 313.75 480.875 313.955C479.256 314.165 477.489 314.523 477.489 316.523C477.489 318.227 478.807 319.205 480.466 319.205ZM480.671 318C479.603 318 478.83 317.523 478.83 316.591C478.83 315.568 479.762 315.25 480.807 315.114C481.375 315.045 482.898 314.886 483.125 314.614V315.841C483.125 316.932 482.262 318 480.671 318ZM487.074 319H488.415V313.477C488.415 312.295 489.347 311.432 490.619 311.432C490.977 311.432 491.347 311.5 491.437 311.523V310.159C491.284 310.148 490.932 310.136 490.733 310.136C489.687 310.136 488.778 310.727 488.46 311.591H488.369V310.273H487.074V319Z" fill="#F2F2F2"/>
<path d="M73.801 169.562C61.8839 169.562 40 184.55 40 184.55V250H540V134.589C540 134.589 518.954 143.744 509.388 140.584C495.902 136.13 483.24 114.754 474.949 114.105C462.194 113.105 466.02 119.6 439.872 119.6C415 119.6 426.185 132.59 401.607 132.59C388.15 132.59 368.444 143.585 368.444 143.585H329.541C311.046 143.585 307.276 175.903 286.811 173.562C266.976 171.292 267.679 166.065 251.735 166.065C236.14 166.065 233.738 173.711 217.934 172.06C198.801 170.062 199.439 148.578 173.291 148.578C141.403 148.578 135.663 175.058 110.153 177.056C91.4237 178.523 94.3698 169.562 73.801 169.562Z" fill="url(#paint1_linear_34_71)"/>
<defs>
<filter id="filter0_b_34_71" x="-210" y="6" width="680.887" height="684" filterUnits="userSpaceOnUse" color-interpolation-filters="sRGB">
<feFlood flood-opacity="0" result="BackgroundImageFix"/>
<feGaussianBlur in="BackgroundImage" stdDeviation="125"/>
<feComposite in2="SourceAlpha" operator="in" result="effect1_backgroundBlur_34_71"/>
<feBlend mode="normal" in="SourceGraphic" in2="effect1_backgroundBlur_34_71" result="shape"/>
</filter>
<linearGradient id="paint0_linear_34_71" x1="59.9892" y1="125.537" x2="59.9892" y2="168.147" gradientUnits="userSpaceOnUse">
<stop stop-color="#F9AA4B"/>
<stop offset="1" stop-color="#F7931A"/>
</linearGradient>
<linearGradient id="paint1_linear_34_71" x1="290" y1="114" x2="290" y2="250" gradientUnits="userSpaceOnUse">
<stop stop-color="#6EDCB5" stop-opacity="0.4"/>
<stop offset="1" stop-color="#6EDCB5" stop-opacity="0"/>
</linearGradient>
</defs>
</svg>
