<svg width="80" height="80" viewBox="0 0 80 80" fill="none" xmlns="http://www.w3.org/2000/svg">
<path d="M23.1672 36.1109L37.7899 21.4882L52.4195 36.1172L60.9278 27.609L37.7899 4.47168L14.6595 27.602L23.1675 36.1103L23.1672 36.1109ZM0.142822 42.1187L8.65136 33.609L17.1593 42.1169L8.65076 50.6255L0.142822 42.1187ZM23.1672 48.1275L37.7899 62.7493L52.4192 48.1206L60.932 56.6243L60.9278 56.6288L37.7899 79.7658L14.6595 56.6354L14.6475 56.6234L23.1681 48.1266L23.1672 48.1275ZM58.4205 42.1224L66.929 33.6138L75.4369 42.1217L66.9287 50.6303L58.4205 42.1224Z" fill="#F3BA2F"/>
<path d="M46.418 42.1119H46.4216L37.7886 33.4785L31.4074 39.8576L30.6744 40.591L29.1624 42.1032L29.1504 42.1149L29.1624 42.1273L37.7886 50.7543L46.4222 42.1209L46.4265 42.1161L46.4186 42.1119" fill="#F3BA2F"/>
</svg>
