<svg width="20" height="20" viewBox="0 0 20 20" fill="none" xmlns="http://www.w3.org/2000/svg">
<path d="M18.8675 10.5297C18.8675 15.7265 14.6541 19.9399 9.455 19.9407C4.2597 19.9407 0.0462445 15.7265 0.0469975 10.5289C0.0454916 5.33138 4.25895 1.11792 9.4565 1.11792C14.6541 1.11792 18.8675 5.33213 18.8675 10.5297V10.5297Z" fill="#EAB300"/>
<path d="M13.1598 8.22414C13.0385 6.96371 11.9505 6.54131 10.5757 6.42084V4.67175H9.51176V6.37416C9.23242 6.37416 8.9463 6.37943 8.66245 6.38545V4.67175H7.59854L7.59779 6.41933C7.36739 6.42385 7.14075 6.42837 6.92014 6.42837V6.4231L5.45266 6.42235V7.55929C5.45266 7.55929 6.23873 7.54423 6.22517 7.55854C6.65661 7.55854 6.79666 7.80852 6.83732 8.02461V10.0169C6.86743 10.0169 6.90583 10.0184 6.9495 10.0244H6.83732L6.83656 12.8156C6.81774 12.9511 6.73793 13.1672 6.43675 13.168C6.4503 13.18 5.66348 13.168 5.66348 13.168L5.4519 14.4389H6.83732C7.09482 14.4389 7.34856 14.4435 7.59703 14.445L7.59779 16.2136H8.66094V14.4638C8.95233 14.4698 9.23468 14.4721 9.51101 14.4721L9.51026 16.2136H10.5742V14.4487C12.3632 14.3463 13.6168 13.8953 13.7719 12.2147C13.8976 10.8617 13.2614 10.2571 12.2457 10.0131C12.8639 9.69991 13.2501 9.1465 13.1598 8.22414V8.22414ZM11.6704 12.0054C11.6704 13.3268 9.40786 13.177 8.68579 13.177V10.8331C9.40786 10.8346 11.6704 10.6275 11.6704 12.0054V12.0054ZM11.175 8.69925C11.175 9.9017 9.28663 9.7609 8.68579 9.76165V7.63684C9.28739 7.63684 11.1758 7.4456 11.175 8.69925Z" fill="white"/>
<path d="M6.83972 9.96997H6.99784V10.0867H6.83972V9.96997Z" fill="white"/>
</svg>
